<svg width="40" height="40" viewBox="0 0 40 40" fill="none" xmlns="http://www.w3.org/2000/svg">
<path d="M0 3C0 1.34315 1.34315 0 3 0H37C38.6569 0 40 1.34315 40 3V37C40 38.6569 38.6569 40 37 40H3C1.34315 40 0 38.6569 0 37V3Z" fill="#4F77CC"/>
<path d="M21.4914 29.2578V20.4741H24.4385L24.8807 17.0499H21.4914V14.864C21.4914 13.8729 21.7655 13.1975 23.1883 13.1975L25 13.1968V10.1341C24.6867 10.0933 23.6112 10 22.3595 10C19.7456 10 17.9561 11.5955 17.9561 14.5249V17.0499H15V20.4741H17.9561V29.2578H21.4914Z" fill="white"/>
</svg>
