<svg width="20" height="21" viewBox="0 0 20 21" fill="none" xmlns="http://www.w3.org/2000/svg">
<path fill-rule="evenodd" clip-rule="evenodd" d="M10.2035 8.81916V12.3468H15.9902C15.757 13.8593 14.2411 16.7858 10.2035 16.7858C6.71975 16.7858 3.87739 13.877 3.87739 10.289C3.87739 6.70255 6.71975 3.79221 10.2035 3.79221C12.1858 3.79221 13.5123 4.64473 14.2702 5.37967L17.0397 2.68981C15.2614 1.01416 12.9584 -4.95911e-05 10.2035 -4.95911e-05C4.56247 -4.95911e-05 0.00012207 4.60064 0.00012207 10.289C0.00012207 15.9774 4.56247 20.5781 10.2035 20.5781C16.0922 20.5781 20.0001 16.4037 20.0001 10.5242C20.0001 9.84807 19.9258 9.33362 19.8383 8.81916H10.2035Z" fill="white"/>
</svg>
