<svg width="40" height="40" viewBox="0 0 40 40" fill="none" xmlns="http://www.w3.org/2000/svg">
<path d="M0 3C0 1.34315 1.34315 0 3 0H37C38.6569 0 40 1.34315 40 3V37C40 38.6569 38.6569 40 37 40H3C1.34315 40 0 38.6569 0 37V3Z" fill="#AB3A2C"/>
<path fill-rule="evenodd" clip-rule="evenodd" d="M20.1693 19.0158V21.9556H24.9916C24.7972 23.216 23.534 25.6548 20.1693 25.6548C17.2662 25.6548 14.8976 23.2307 14.8976 20.2407C14.8976 17.252 17.2662 14.8267 20.1693 14.8267C21.8213 14.8267 22.9266 15.5372 23.5583 16.1496L25.8661 13.9081C24.3842 12.5117 22.465 11.6665 20.1693 11.6665C15.4685 11.6665 11.6665 15.5004 11.6665 20.2407C11.6665 24.9811 15.4685 28.815 20.1693 28.815C25.0766 28.815 28.3332 25.3363 28.3332 20.4367C28.3332 19.8733 28.2712 19.4446 28.1983 19.0158H20.1693Z" fill="white"/>
</svg>
