<svg width="13" height="12" viewBox="0 0 13 12" fill="none" xmlns="http://www.w3.org/2000/svg">
<path d="M2.79411 3.84961H0.383835C0.276863 3.84961 0.190186 3.93633 0.190186 4.04326V11.7864C0.190186 11.8934 0.276863 11.9801 0.383835 11.9801H2.79411C2.90108 11.9801 2.98776 11.8934 2.98776 11.7864V4.04326C2.98776 3.93633 2.90108 3.84961 2.79411 3.84961Z" fill="#127BB6"/>
<path d="M1.59048 0C0.713482 0 0 0.712708 0 1.58874C0 2.46516 0.713482 3.17814 1.59048 3.17814C2.46678 3.17814 3.17968 2.46512 3.17968 1.58874C3.17972 0.712708 2.46678 0 1.59048 0Z" fill="#127BB6"/>
<path d="M8.92558 3.65723C7.95752 3.65723 7.24191 4.07338 6.80787 4.54623V4.04332C6.80787 3.93639 6.72119 3.84968 6.61422 3.84968H4.30595C4.19898 3.84968 4.1123 3.93639 4.1123 4.04332V11.7865C4.1123 11.8935 4.19898 11.9802 4.30595 11.9802H6.71096C6.81794 11.9802 6.90461 11.8935 6.90461 11.7865V7.95543C6.90461 6.66445 7.25527 6.1615 8.1552 6.1615C9.1353 6.1615 9.21319 6.96778 9.21319 8.02185V11.7865C9.21319 11.8935 9.29986 11.9802 9.40684 11.9802H11.8127C11.9197 11.9802 12.0064 11.8935 12.0064 11.7865V7.53928C12.0064 5.61963 11.6403 3.65723 8.92558 3.65723Z" fill="#127BB6"/>
</svg>
