<svg width="40" height="40" viewBox="0 0 40 40" fill="none" xmlns="http://www.w3.org/2000/svg">
<path d="M0 3C0 1.34315 1.34315 0 3 0H37C38.6569 0 40 1.34315 40 3V37C40 38.6569 38.6569 40 37 40H3C1.34315 40 0 38.6569 0 37V3Z" fill="#005682"/>
<path d="M28.3334 21.4307V27.5925H24.7612V21.8434C24.7612 20.3992 24.2445 19.4135 22.9515 19.4135C21.9644 19.4135 21.3771 20.0778 21.1186 20.7203C21.0244 20.95 21.0001 21.2697 21.0001 21.5913V27.5925H17.4267C17.4267 27.5925 17.4749 17.8554 17.4267 16.8466H20.9998V18.3698C20.9925 18.3811 20.9831 18.3934 20.9763 18.4045H20.9998V18.3698C21.4745 17.6386 22.3223 16.5941 24.2199 16.5941C26.5709 16.5941 28.3334 18.13 28.3334 21.4307ZM13.6888 11.6665C12.4663 11.6665 11.6667 12.4683 11.6667 13.5228C11.6667 14.5542 12.4432 15.3804 13.6414 15.3804H13.6652C14.9114 15.3804 15.6864 14.5544 15.6864 13.5228C15.6629 12.4683 14.9114 11.6665 13.6888 11.6665ZM11.879 27.5925H15.451V16.8466H11.879V27.5925Z" fill="white"/>
</svg>
