<svg width="72" height="46" viewBox="0 0 72 46" fill="none" xmlns="http://www.w3.org/2000/svg">
<path d="M12.1535 38.8326L9.11401 41.8042L9.83126 45.9995L6.06789 44.0185L2.30451 45.9995L3.02177 41.8042L0 38.8326L4.20612 38.2196L6.08338 34.4041L7.96064 38.2196L12.1535 38.8326ZM22.9167 38.2196L21.0306 34.4041L19.1512 38.2196L14.945 38.8326L17.9823 41.8042L17.265 45.9995L21.0284 44.0185L24.7918 45.9995L24.0745 41.8042L27.1118 38.8326L22.9167 38.2196ZM37.8773 38.2196L36 34.4041L34.1227 38.2196L29.9166 38.8326L32.9561 41.8042L32.2388 45.9995L36.0022 44.0185L39.7656 45.9995L39.0483 41.8042L42.0856 38.8326L37.8773 38.2196ZM52.84 38.2196L50.9627 34.4041L49.0855 38.2196L44.8793 38.8326L47.9166 41.8042L47.1994 45.9995L50.9627 44.0185L54.7261 45.9995L54.0089 41.8042L57.0483 38.8326L52.84 38.2196ZM72 38.8326L67.7939 38.2196L65.9144 34.4041L64.0371 38.2196L59.831 38.8326L62.8683 41.8042L62.151 45.9995L65.9144 44.0185L69.6778 45.9995L68.9605 41.8042L72 38.8326Z" fill="white"/>
<path d="M69.913 0.0214844H61.8151V8.14566H69.913V0.0214844Z" fill="white"/>
<path d="M16.4747 14.5071C18.9275 13.7009 20.8734 11.1557 20.8734 8.06643C20.8734 3.43578 17.4487 0 11.5292 0H0.325378V30.0736H12.4169C18.0819 30.0736 21.8032 26.4669 21.8032 21.5475C21.8032 17.6453 19.1799 15.1423 16.4747 14.5071ZM6.83602 5.55233H10.378C12.9991 5.55233 14.3096 6.82493 14.3096 8.7749C14.3096 10.8115 12.7888 12.0419 10.4621 12.0419H6.83602V5.55233ZM11.0222 24.5968H6.83602V17.5609H11.0222C13.6433 17.5609 15.1641 19.0023 15.1641 21.0811C15.1641 23.2443 13.6012 24.6013 11.0222 24.6013V24.5968ZM27.477 0.0222093H35.5727V30.0736H27.477V0.0222093ZM71.6768 30.0736H62.1775L56.0787 21.0989L49.7584 30.0692H40.6245L51.2793 14.9824L40.6245 0.0222093H50.2521C51.2793 1.67014 71.6768 30.0736 71.6768 30.0736Z" fill="white"/>
</svg>
