<svg width="78" height="78" viewBox="0 0 78 78" fill="none" xmlns="http://www.w3.org/2000/svg">
<path d="M39.0004 5.43282C32.3617 5.4341 25.8725 7.40387 20.3533 11.093C14.8341 14.7822 10.5327 20.0251 7.99307 26.1588C5.45345 32.2925 4.78963 39.0415 6.08556 45.5525C7.38148 52.0634 10.5789 58.0439 15.2736 62.7377C19.9683 67.4315 25.9494 70.6278 32.4606 71.9225C38.9718 73.2171 45.7207 72.552 51.8539 70.0112C57.9871 67.4704 63.2292 63.168 66.9173 57.6481C70.6054 52.1282 72.5739 45.6386 72.5739 38.9999C72.5645 30.0991 69.0241 21.5657 62.7297 15.2725C56.4353 8.97933 47.9012 5.44054 39.0004 5.43282ZM39.0004 77.0376C31.4772 77.0376 24.123 74.8068 17.8678 70.6271C11.6125 66.4475 6.7371 60.5068 3.85811 53.5563C0.979127 46.6058 0.225854 38.9577 1.69355 31.5791C3.16124 24.2005 6.78398 17.4228 12.1037 12.1032C17.4233 6.7835 24.201 3.16075 31.5796 1.69306C38.9582 0.225366 46.6063 0.978639 53.5568 3.85762C60.5073 6.73661 66.448 11.612 70.6276 17.8673C74.8072 24.1225 77.0381 31.4767 77.0381 38.9999C77.0253 49.0842 73.0136 58.7518 65.8829 65.8824C58.7523 73.0131 49.0847 77.0248 39.0004 77.0376Z" fill="#8DC74C"/>
<path d="M29.5005 37.3673C27.847 39.594 26.9363 42.2847 26.8974 45.058C26.8584 47.8312 27.6933 50.5464 29.2836 52.8187C29.3128 52.8187 29.3387 52.8025 29.3743 52.8025C28.074 53.1938 26.6929 53.2318 25.373 52.9126C24.3799 52.6651 23.445 52.2252 22.6214 51.6177L22.0484 51.1839C21.243 50.5862 20.5634 49.8356 20.0485 48.975C19.5335 48.1144 19.1932 47.1608 19.047 46.1686C18.9009 45.1764 18.9518 44.1651 19.1969 43.1926C19.4419 42.2201 19.8762 41.3055 20.4751 40.501L30.0929 27.5519C31.066 26.2525 32.4287 25.2979 33.9824 24.8274C35.5361 24.3568 37.1994 24.395 38.7299 24.9362L29.5005 37.3673ZM33.7575 49.4293C32.8923 48.1258 32.4499 46.5872 32.4904 45.0232C32.5309 43.4592 33.0525 41.9457 33.9841 40.6887L43.6052 27.7397C44.2032 26.9345 44.954 26.2552 45.8148 25.7405C46.6756 25.2259 47.6294 24.8861 48.6217 24.7406C49.614 24.595 50.6253 24.6466 51.5976 24.8924C52.5699 25.1382 53.4842 25.5733 54.2882 26.1729L54.8547 26.5937C55.6597 27.1917 56.3389 27.9424 56.8537 28.803C57.3684 29.6636 57.7086 30.6171 57.8547 31.6092C58.0008 32.6013 57.95 33.6124 57.7052 34.5849C57.4604 35.5573 57.0264 36.472 56.428 37.2767L46.8101 50.2257C46.151 51.1149 45.3064 51.8502 44.3349 52.3807C43.3634 52.9112 42.2882 53.2241 41.1838 53.2978C40.468 53.3565 39.8022 53.6883 39.3244 54.2245C38.8466 54.7606 38.5933 55.46 38.617 56.1778C38.6407 56.8956 38.9396 57.5768 39.4518 58.0802C39.964 58.5836 40.6502 58.8707 41.3683 58.8821C41.433 58.8821 41.501 58.8821 41.5593 58.8821C43.4698 58.7543 45.3297 58.2131 47.0104 57.2959C48.6912 56.3787 50.1526 55.1073 51.2937 53.5697L60.9148 40.6207C62.9997 37.8049 63.8832 34.2773 63.3717 30.8112C62.8601 27.345 60.9953 24.2231 58.1858 22.1295L57.6193 21.6925C55.5492 20.1532 53.0739 19.2533 50.4986 19.1038C47.9233 18.9542 45.3605 19.5615 43.1261 20.8508C40.3069 19.1373 36.9506 18.5352 33.7115 19.1618C30.4724 19.7884 27.5829 21.5989 25.6061 24.2402L15.9882 37.1892C13.9055 40.0056 13.0223 43.532 13.5319 46.9975C14.0415 50.4631 15.9022 53.586 18.7075 55.6837L19.2935 56.111C20.7111 57.1638 22.3245 57.9232 24.0393 58.3447C25.0696 58.5937 26.1259 58.7198 27.1859 58.7202C29.244 58.7191 31.2733 58.2363 33.1115 57.3105C34.9496 56.3847 36.5456 55.0415 37.7717 53.3885L47.3993 40.4394C48.4601 39.0169 49.2226 37.3947 49.6409 35.6702C50.0592 33.9457 50.1248 32.1544 49.8337 30.404C49.7944 30.025 49.678 29.6581 49.4917 29.3258C49.3054 28.9935 49.0531 28.7029 48.7503 28.4717C48.4475 28.2405 48.1006 28.0737 47.731 27.9815C47.3613 27.8893 46.9767 27.8736 46.6008 27.9355C46.2249 27.9975 45.8657 28.1356 45.5451 28.3415C45.2246 28.5474 44.9495 28.8166 44.7369 29.1327C44.5242 29.4488 44.3785 29.805 44.3085 30.1795C44.2386 30.554 44.2461 30.9389 44.3304 31.3104C44.5007 32.3221 44.464 33.3579 44.2225 34.355C43.981 35.3521 43.5398 36.2899 42.9254 37.1116L33.7575 49.4293Z" fill="#8DC74C"/>
</svg>
