<svg width="980" height="325" viewBox="0 0 980 325" fill="none" xmlns="http://www.w3.org/2000/svg">
<path d="M300 0H470V56H300V0Z" fill="#A656AA"/>
<path d="M470 0H640V56H470V0Z" fill="#56AA7C"/>
<path d="M640 0H810V56H640V0Z" fill="#AAA656"/>
<path d="M810 0H980V56H810V0Z" fill="#56AAA6"/>
<path d="M324.608 25L325.584 22.904C324.464 22.168 322.896 21.688 321.328 21.688C318.736 21.688 316.992 22.968 316.992 25C316.992 28.968 322.96 27.736 322.96 29.848C322.96 30.536 322.336 30.92 321.296 30.92C320.112 30.92 318.48 30.264 317.328 29.24L316.32 31.304C317.584 32.376 319.424 33.08 321.264 33.08C323.744 33.08 325.648 31.896 325.648 29.704C325.664 25.672 319.696 26.824 319.696 24.76C319.696 24.152 320.272 23.848 321.12 23.848C322.016 23.848 323.424 24.296 324.608 25Z" fill="white"/>
<path d="M334.78 33L334.764 27.384C334.748 25.448 333.42 24.296 331.116 24.296C329.612 24.296 328.508 24.648 327.228 25.288L327.996 26.984C328.892 26.488 329.788 26.232 330.556 26.232C331.74 26.232 332.348 26.76 332.348 27.672V27.832H329.98C327.868 27.848 326.7 28.808 326.7 30.424C326.7 31.992 327.82 33.112 329.66 33.112C330.86 33.112 331.788 32.712 332.364 31.992V33H334.78ZM330.348 31.352C329.516 31.352 329.004 30.92 329.004 30.264C329.004 29.576 329.468 29.288 330.412 29.288H332.348V30.056C332.204 30.792 331.388 31.352 330.348 31.352Z" fill="white"/>
<path d="M338.151 20.568C337.335 20.568 336.727 21.128 336.727 21.944C336.727 22.744 337.335 23.32 338.151 23.32C338.999 23.32 339.575 22.744 339.575 21.944C339.575 21.128 338.999 20.568 338.151 20.568ZM339.383 33.256V24.392H336.935V33.16C336.935 33.864 336.551 34.168 336.023 34.168C335.703 34.168 335.335 34.04 335.015 33.832L334.343 35.64C334.903 36.008 335.623 36.216 336.375 36.216C337.991 36.216 339.383 35.208 339.383 33.256Z" fill="white"/>
<path d="M348.081 21.608L345.793 20.744L344.097 23.352H346.049L348.081 21.608ZM349.233 33L349.217 27.384C349.201 25.448 347.873 24.296 345.569 24.296C344.065 24.296 342.961 24.648 341.681 25.288L342.449 26.984C343.345 26.488 344.241 26.232 345.009 26.232C346.193 26.232 346.801 26.76 346.801 27.672V27.832H344.433C342.321 27.848 341.153 28.808 341.153 30.424C341.153 31.992 342.273 33.112 344.113 33.112C345.313 33.112 346.241 32.712 346.817 31.992V33H349.233ZM344.801 31.352C343.969 31.352 343.457 30.92 343.457 30.264C343.457 29.576 343.921 29.288 344.865 29.288H346.801V30.056C346.657 30.792 345.841 31.352 344.801 31.352Z" fill="white"/>
<path d="M356.172 30.712C355.724 30.92 355.34 31.032 355.02 31.032C354.492 31.048 354.188 30.76 354.188 30.04V26.488H356.524V24.776H354.188V22.408H351.74V24.776H350.54V26.472H351.74V30.456C351.74 32.232 352.908 33.112 354.444 33.112C355.244 33.112 356.044 32.888 356.684 32.52L356.172 30.712Z" fill="white"/>
<path d="M364.492 25.944V24.392H362.028V33H364.492V28.856C364.492 27.4 365.58 26.456 367.34 26.616V24.296C366.06 24.312 365.084 24.888 364.492 25.944Z" fill="white"/>
<path d="M372.38 24.312C369.756 24.312 367.948 26.072 367.948 28.728C367.948 31.336 369.692 33.096 372.444 33.096C373.996 33.096 375.26 32.536 376.124 31.576L374.828 30.264C374.236 30.856 373.468 31.176 372.652 31.176C371.548 31.176 370.716 30.536 370.428 29.448H376.604C376.812 26.312 375.404 24.312 372.38 24.312ZM370.38 27.992C370.572 26.856 371.308 26.12 372.396 26.12C373.532 26.12 374.268 26.856 374.3 27.992H370.38Z" fill="white"/>
<path d="M382.058 23.048C382.41 23.048 382.81 23.176 383.13 23.416L384.01 21.624C383.402 21.224 382.554 21.016 381.754 21.016C380.026 21.016 378.586 22.04 378.586 23.96V24.776H377.434V26.488H378.586V33H381.034V26.488H383.066V24.776H381.034V24.056C381.034 23.368 381.482 23.048 382.058 23.048Z" fill="white"/>
<path d="M387.615 24.312C384.991 24.312 383.183 26.072 383.183 28.728C383.183 31.336 384.927 33.096 387.679 33.096C389.231 33.096 390.495 32.536 391.359 31.576L390.063 30.264C389.471 30.856 388.703 31.176 387.887 31.176C386.783 31.176 385.951 30.536 385.663 29.448H391.839C392.047 26.312 390.639 24.312 387.615 24.312ZM385.615 27.992C385.807 26.856 386.543 26.12 387.631 26.12C388.767 26.12 389.503 26.856 389.535 27.992H385.615Z" fill="white"/>
<path d="M395.93 25.944V24.392H393.466V33H395.93V28.856C395.93 27.4 397.018 26.456 398.778 26.616V24.296C397.498 24.312 396.522 24.888 395.93 25.944Z" fill="white"/>
<path d="M403.818 24.312C401.194 24.312 399.386 26.072 399.386 28.728C399.386 31.336 401.13 33.096 403.882 33.096C405.434 33.096 406.698 32.536 407.562 31.576L406.266 30.264C405.674 30.856 404.906 31.176 404.09 31.176C402.986 31.176 402.154 30.536 401.866 29.448H408.042C408.25 26.312 406.842 24.312 403.818 24.312ZM401.818 27.992C402.01 26.856 402.746 26.12 403.834 26.12C404.97 26.12 405.706 26.856 405.738 27.992H401.818Z" fill="white"/>
<path d="M415.109 24.296C413.765 24.312 412.741 24.824 412.133 25.896V24.392H409.669V33H412.133V28.76C412.133 27.496 412.869 26.568 414.101 26.552C415.157 26.552 415.797 27.224 415.797 28.312V33H418.261V27.592C418.261 25.576 417.029 24.296 415.109 24.296Z" fill="white"/>
<path d="M426.131 27.32L427.795 26.12C427.027 24.968 425.715 24.312 424.067 24.312C421.427 24.312 419.651 26.088 419.651 28.728C419.651 31.336 421.427 33.096 424.035 33.096C425.795 33.096 427.139 32.392 427.859 31.192L426.163 30.04C425.731 30.712 425.043 31.048 424.163 31.048C422.963 31.048 422.115 30.104 422.115 28.712C422.115 27.336 422.963 26.408 424.163 26.408C425.011 26.392 425.667 26.744 426.131 27.32Z" fill="white"/>
<path d="M430.635 20.552C429.851 20.552 429.307 21.128 429.307 21.928C429.307 22.728 429.851 23.304 430.635 23.304C431.419 23.304 431.963 22.728 431.963 21.928C431.963 21.128 431.419 20.552 430.635 20.552ZM429.403 24.392V33H431.867V24.392H429.403Z" fill="white"/>
<path d="M440.487 21.608L438.199 20.744L436.503 23.352H438.455L440.487 21.608ZM441.639 33L441.623 27.384C441.607 25.448 440.279 24.296 437.975 24.296C436.471 24.296 435.367 24.648 434.087 25.288L434.855 26.984C435.751 26.488 436.647 26.232 437.415 26.232C438.599 26.232 439.207 26.76 439.207 27.672V27.832H436.839C434.727 27.848 433.559 28.808 433.559 30.424C433.559 31.992 434.679 33.112 436.519 33.112C437.719 33.112 438.647 32.712 439.223 31.992V33H441.639ZM437.207 31.352C436.375 31.352 435.863 30.92 435.863 30.264C435.863 29.576 436.327 29.288 437.271 29.288H439.207V30.056C439.063 30.792 438.247 31.352 437.207 31.352Z" fill="white"/>
<path d="M449.49 33H452.402L449.106 27.72L452.258 24.408H449.458L446.306 27.656V21.128H443.842V33H446.306V30.664L447.41 29.496L449.49 33Z" fill="white"/>
<path d="M505.752 30.296C505.032 30.664 504.232 30.904 503.56 30.904C501.576 30.904 500.024 29.384 500.024 27.4C500.024 25.432 501.56 23.912 503.544 23.912C504.632 23.912 505.784 24.392 506.616 25.16L508.04 23.352C506.904 22.36 505.208 21.72 503.544 21.72C500.056 21.72 497.432 24.168 497.432 27.4C497.432 30.648 500.008 33.112 503.4 33.112C504.952 33.112 506.76 32.52 507.944 31.656V27.352H505.752V30.296Z" fill="white"/>
<path d="M513.994 24.312C511.226 24.312 509.37 26.056 509.37 28.696C509.37 31.32 511.226 33.096 513.994 33.096C516.746 33.096 518.602 31.32 518.602 28.696C518.602 26.056 516.746 24.312 513.994 24.312ZM513.994 26.36C515.258 26.36 516.138 27.32 516.138 28.728C516.138 30.136 515.258 31.096 513.994 31.096C512.714 31.096 511.85 30.136 511.85 28.728C511.85 27.32 512.714 26.36 513.994 26.36Z" fill="white"/>
<path d="M524.119 24.312C521.351 24.312 519.495 26.056 519.495 28.696C519.495 31.32 521.351 33.096 524.119 33.096C526.871 33.096 528.727 31.32 528.727 28.696C528.727 26.056 526.871 24.312 524.119 24.312ZM524.119 26.36C525.383 26.36 526.263 27.32 526.263 28.728C526.263 30.136 525.383 31.096 524.119 31.096C522.839 31.096 521.975 30.136 521.975 28.728C521.975 27.32 522.839 26.36 524.119 26.36Z" fill="white"/>
<path d="M535.972 24.392V25.56C535.38 24.76 534.484 24.296 533.316 24.312C531.124 24.312 529.62 25.96 529.62 28.392C529.62 30.888 531.156 32.552 533.38 32.552C534.516 32.552 535.396 32.104 535.972 31.304V32.28C535.972 33.448 535.076 34.2 533.668 34.2C532.692 34.2 531.78 33.896 530.996 33.336L530.084 35.064C531.076 35.736 532.372 36.2 533.828 36.2C536.58 36.2 538.42 34.648 538.42 32.2V24.392H535.972ZM533.956 30.68C532.74 30.68 531.94 29.768 531.924 28.456C531.94 27.144 532.756 26.216 533.956 26.216C535.156 26.216 535.972 27.128 535.972 28.456C535.972 29.768 535.156 30.68 533.956 30.68Z" fill="white"/>
<path d="M540.748 21.128V33H543.212V21.128H540.748Z" fill="white"/>
<path d="M549.38 24.312C546.756 24.312 544.948 26.072 544.948 28.728C544.948 31.336 546.692 33.096 549.444 33.096C550.996 33.096 552.26 32.536 553.124 31.576L551.828 30.264C551.236 30.856 550.468 31.176 549.652 31.176C548.548 31.176 547.716 30.536 547.428 29.448H553.604C553.812 26.312 552.404 24.312 549.38 24.312ZM547.38 27.992C547.572 26.856 548.308 26.12 549.396 26.12C550.532 26.12 551.268 26.856 551.3 27.992H547.38Z" fill="white"/>
<path d="M568.882 33L566.498 29.304C567.858 28.664 568.594 27.416 568.594 25.688C568.594 23.208 566.93 21.8 564.002 21.8H559.138V33H561.666V29.8H564.002H564.242L566.018 33H568.882ZM561.666 23.896H564.002C565.394 23.896 566.194 24.52 566.194 25.768C566.194 27.048 565.394 27.688 564.002 27.688H561.666V23.896Z" fill="white"/>
<path d="M578.076 33L578.06 27.384C578.044 25.448 576.716 24.296 574.412 24.296C572.908 24.296 571.804 24.648 570.524 25.288L571.292 26.984C572.188 26.488 573.084 26.232 573.852 26.232C575.036 26.232 575.644 26.76 575.644 27.672V27.832H573.276C571.164 27.848 569.996 28.808 569.996 30.424C569.996 31.992 571.116 33.112 572.956 33.112C574.156 33.112 575.084 32.712 575.66 31.992V33H578.076ZM573.644 31.352C572.812 31.352 572.3 30.92 572.3 30.264C572.3 29.576 572.764 29.288 573.708 29.288H575.644V30.056C575.5 30.792 574.684 31.352 573.644 31.352Z" fill="white"/>
<path d="M585.015 30.712C584.567 30.92 584.183 31.032 583.863 31.032C583.335 31.048 583.031 30.76 583.031 30.04V26.488H585.367V24.776H583.031V22.408H580.583V24.776H579.383V26.472H580.583V30.456C580.583 32.232 581.751 33.112 583.287 33.112C584.087 33.112 584.887 32.888 585.527 32.52L585.015 30.712Z" fill="white"/>
<path d="M588.244 20.552C587.46 20.552 586.916 21.128 586.916 21.928C586.916 22.728 587.46 23.304 588.244 23.304C589.028 23.304 589.572 22.728 589.572 21.928C589.572 21.128 589.028 20.552 588.244 20.552ZM587.012 24.392V33H589.476V24.392H587.012Z" fill="white"/>
<path d="M597.28 24.296C595.936 24.312 594.912 24.824 594.304 25.896V24.392H591.84V33H594.304V28.76C594.304 27.496 595.04 26.568 596.272 26.552C597.328 26.552 597.968 27.224 597.968 28.312V33H600.432V27.592C600.432 25.576 599.2 24.296 597.28 24.296Z" fill="white"/>
<path d="M608.175 24.392V25.56C607.583 24.76 606.687 24.296 605.519 24.312C603.327 24.312 601.823 25.96 601.823 28.392C601.823 30.888 603.359 32.552 605.583 32.552C606.719 32.552 607.599 32.104 608.175 31.304V32.28C608.175 33.448 607.279 34.2 605.871 34.2C604.895 34.2 603.983 33.896 603.199 33.336L602.287 35.064C603.279 35.736 604.575 36.2 606.031 36.2C608.783 36.2 610.623 34.648 610.623 32.2V24.392H608.175ZM606.159 30.68C604.943 30.68 604.143 29.768 604.127 28.456C604.143 27.144 604.959 26.216 606.159 26.216C607.359 26.216 608.175 27.128 608.175 28.456C608.175 29.768 607.359 30.68 606.159 30.68Z" fill="white"/>
<path d="M657.232 21.8V33H659.76V28.76H664.816V26.648H659.76V23.896H665.264L665.28 21.8H657.232Z" fill="white"/>
<path d="M674.108 33L674.092 27.384C674.076 25.448 672.748 24.296 670.444 24.296C668.94 24.296 667.836 24.648 666.556 25.288L667.324 26.984C668.22 26.488 669.116 26.232 669.884 26.232C671.068 26.232 671.676 26.76 671.676 27.672V27.832H669.308C667.196 27.848 666.028 28.808 666.028 30.424C666.028 31.992 667.148 33.112 668.988 33.112C670.188 33.112 671.116 32.712 671.692 31.992V33H674.108ZM669.676 31.352C668.844 31.352 668.332 30.92 668.332 30.264C668.332 29.576 668.796 29.288 669.74 29.288H671.676V30.056C671.532 30.792 670.716 31.352 669.676 31.352Z" fill="white"/>
<path d="M681.975 27.32L683.639 26.12C682.871 24.968 681.559 24.312 679.911 24.312C677.271 24.312 675.495 26.088 675.495 28.728C675.495 31.336 677.271 33.096 679.879 33.096C681.639 33.096 682.983 32.392 683.703 31.192L682.007 30.04C681.575 30.712 680.887 31.048 680.007 31.048C678.807 31.048 677.959 30.104 677.959 28.712C677.959 27.336 678.807 26.408 680.007 26.408C680.855 26.392 681.511 26.744 681.975 27.32Z" fill="white"/>
<path d="M688.662 24.312C686.038 24.312 684.23 26.072 684.23 28.728C684.23 31.336 685.974 33.096 688.726 33.096C690.278 33.096 691.542 32.536 692.406 31.576L691.11 30.264C690.518 30.856 689.75 31.176 688.934 31.176C687.83 31.176 686.998 30.536 686.71 29.448H692.886C693.094 26.312 691.686 24.312 688.662 24.312ZM686.662 27.992C686.854 26.856 687.59 26.12 688.678 26.12C689.814 26.12 690.55 26.856 690.582 27.992H686.662Z" fill="white"/>
<path d="M699.777 24.312C698.609 24.312 697.665 24.792 697.057 25.656V21.128H694.593V33H697.057V31.752C697.681 32.616 698.625 33.096 699.825 33.096C702.241 33.096 703.825 31.352 703.825 28.744C703.825 26.088 702.193 24.312 699.777 24.312ZM699.201 31.048C697.937 31.048 697.057 30.088 697.057 28.664C697.057 27.272 697.937 26.296 699.201 26.296C700.465 26.296 701.329 27.288 701.329 28.664C701.329 30.072 700.465 31.048 699.201 31.048Z" fill="white"/>
<path d="M709.322 24.312C706.554 24.312 704.698 26.056 704.698 28.696C704.698 31.32 706.554 33.096 709.322 33.096C712.074 33.096 713.93 31.32 713.93 28.696C713.93 26.056 712.074 24.312 709.322 24.312ZM709.322 26.36C710.586 26.36 711.466 27.32 711.466 28.728C711.466 30.136 710.586 31.096 709.322 31.096C708.042 31.096 707.178 30.136 707.178 28.728C707.178 27.32 708.042 26.36 709.322 26.36Z" fill="white"/>
<path d="M719.447 24.312C716.679 24.312 714.823 26.056 714.823 28.696C714.823 31.32 716.679 33.096 719.447 33.096C722.199 33.096 724.055 31.32 724.055 28.696C724.055 26.056 722.199 24.312 719.447 24.312ZM719.447 26.36C720.711 26.36 721.591 27.32 721.591 28.728C721.591 30.136 720.711 31.096 719.447 31.096C718.167 31.096 717.303 30.136 717.303 28.728C717.303 27.32 718.167 26.36 719.447 26.36Z" fill="white"/>
<path d="M731.412 33H734.324L731.028 27.72L734.18 24.408H731.38L728.228 27.656V21.128H725.764V33H728.228V30.664L729.332 29.496L731.412 33Z" fill="white"/>
<path d="M749.242 33L746.858 29.304C748.218 28.664 748.954 27.416 748.954 25.688C748.954 23.208 747.29 21.8 744.362 21.8H739.498V33H742.026V29.8H744.362H744.602L746.378 33H749.242ZM742.026 23.896H744.362C745.754 23.896 746.554 24.52 746.554 25.768C746.554 27.048 745.754 27.688 744.362 27.688H742.026V23.896Z" fill="white"/>
<path d="M758.436 33L758.42 27.384C758.404 25.448 757.076 24.296 754.772 24.296C753.268 24.296 752.164 24.648 750.884 25.288L751.652 26.984C752.548 26.488 753.444 26.232 754.212 26.232C755.396 26.232 756.004 26.76 756.004 27.672V27.832H753.636C751.524 27.848 750.356 28.808 750.356 30.424C750.356 31.992 751.476 33.112 753.316 33.112C754.516 33.112 755.444 32.712 756.02 31.992V33H758.436ZM754.004 31.352C753.172 31.352 752.66 30.92 752.66 30.264C752.66 29.576 753.124 29.288 754.068 29.288H756.004V30.056C755.86 30.792 755.044 31.352 754.004 31.352Z" fill="white"/>
<path d="M765.375 30.712C764.927 30.92 764.543 31.032 764.223 31.032C763.695 31.048 763.391 30.76 763.391 30.04V26.488H765.727V24.776H763.391V22.408H760.943V24.776H759.743V26.472H760.943V30.456C760.943 32.232 762.111 33.112 763.647 33.112C764.447 33.112 765.247 32.888 765.887 32.52L765.375 30.712Z" fill="white"/>
<path d="M768.604 20.552C767.82 20.552 767.276 21.128 767.276 21.928C767.276 22.728 767.82 23.304 768.604 23.304C769.388 23.304 769.932 22.728 769.932 21.928C769.932 21.128 769.388 20.552 768.604 20.552ZM767.372 24.392V33H769.836V24.392H767.372Z" fill="white"/>
<path d="M777.64 24.296C776.296 24.312 775.272 24.824 774.664 25.896V24.392H772.2V33H774.664V28.76C774.664 27.496 775.4 26.568 776.632 26.552C777.688 26.552 778.328 27.224 778.328 28.312V33H780.792V27.592C780.792 25.576 779.56 24.296 777.64 24.296Z" fill="white"/>
<path d="M788.535 24.392V25.56C787.943 24.76 787.047 24.296 785.879 24.312C783.687 24.312 782.183 25.96 782.183 28.392C782.183 30.888 783.719 32.552 785.943 32.552C787.079 32.552 787.959 32.104 788.535 31.304V32.28C788.535 33.448 787.639 34.2 786.231 34.2C785.255 34.2 784.343 33.896 783.559 33.336L782.647 35.064C783.639 35.736 784.935 36.2 786.391 36.2C789.143 36.2 790.983 34.648 790.983 32.2V24.392H788.535ZM786.519 30.68C785.303 30.68 784.503 29.768 784.487 28.456C784.503 27.144 785.319 26.216 786.519 26.216C787.719 26.216 788.535 27.128 788.535 28.456C788.535 29.768 787.719 30.68 786.519 30.68Z" fill="white"/>
<path d="M887.384 21.8H882.232V33H887.56C890.168 33 891.784 31.816 891.784 29.896C891.784 28.424 890.888 27.336 889.448 27.064C890.648 26.76 891.384 25.816 891.384 24.6C891.384 22.872 889.848 21.8 887.384 21.8ZM887.256 26.312H884.76V23.864H887.256C888.2 23.864 888.792 24.296 888.792 25.064C888.792 25.848 888.2 26.312 887.256 26.312ZM887.256 30.936H884.76V28.264H887.256C888.456 28.264 889.176 28.76 889.176 29.576C889.176 30.44 888.456 30.936 887.256 30.936Z" fill="white"/>
<path d="M893.623 21.8V33H896.151V21.8H893.623Z" fill="white"/>
<path d="M897.807 21.8L901.551 27.272L897.535 33H900.495L903.087 29.272L905.727 33H908.751L904.703 27.16L908.431 21.8H905.439L903.087 25.224L900.751 21.8H897.807Z" fill="white"/>
<path d="M0 120H980V176H0V120Z" fill="#EEF6F6"/>
<path fillRule="evenodd" clipRule="evenodd" d="M980 120.5H0V119.5H980V120.5ZM0 175.5H980V176.5H0V175.5Z" fill="#E3E3E3"/>
<path fillRule="evenodd" clipRule="evenodd" d="M980 232.5H0V231.5H980V232.5ZM0 287.5H980V288.5H0V287.5Z" fill="#E3E3E3"/>
<path d="M0 232H980V288H0V232Z" fill="#EEF6F6"/>
<path d="M879.695 85.8V97H880.975V85.8H879.695Z" fill="#999999"/>
<path d="M890.287 88.584V90.296C889.679 89.176 888.591 88.52 887.151 88.536C884.895 88.552 883.343 90.2 883.343 92.568C883.343 94.952 884.911 96.632 887.183 96.632C888.607 96.632 889.695 95.992 890.287 94.872V96.152C890.287 97.928 889.087 99.064 887.247 99.064C886.127 99.048 885.247 98.68 884.415 97.992L883.839 98.904C884.863 99.688 885.967 100.12 887.295 100.136C889.855 100.136 891.535 98.584 891.535 96.12V88.584H890.287ZM887.407 95.608C885.711 95.608 884.527 94.344 884.511 92.6C884.527 90.84 885.711 89.576 887.407 89.576C889.087 89.576 890.287 90.84 890.287 92.6C890.287 94.344 889.087 95.608 887.407 95.608Z" fill="#999999"/>
<path d="M900.811 97L900.795 91.432C900.779 89.64 899.627 88.536 897.547 88.536C896.107 88.536 895.195 88.952 894.107 89.672L894.635 90.552C895.515 89.928 896.379 89.576 897.307 89.576C898.795 89.576 899.563 90.328 899.563 91.56V92.088H896.795C894.811 92.104 893.643 93.032 893.643 94.504C893.643 95.944 894.763 97.048 896.507 97.048C897.851 97.048 898.923 96.6 899.595 95.688V97H900.811ZM896.747 96.008C895.563 96.008 894.811 95.384 894.811 94.456C894.811 93.512 895.547 93.08 896.955 93.08H899.579V94.104C899.259 95.304 898.171 96.008 896.747 96.008Z" fill="#999999"/>
<path d="M902.835 88.584V89.624L907.971 89.64L902.691 96.072V97L909.603 97.016V95.96L904.195 95.944L909.475 89.512V88.584H902.835Z" fill="#999999"/>
<path d="M879.695 141.8V153H880.975V141.8H879.695Z" fill="#999999"/>
<path d="M890.287 144.584V146.296C889.679 145.176 888.591 144.52 887.151 144.536C884.895 144.552 883.343 146.2 883.343 148.568C883.343 150.952 884.911 152.632 887.183 152.632C888.607 152.632 889.695 151.992 890.287 150.872V152.152C890.287 153.928 889.087 155.064 887.247 155.064C886.127 155.048 885.247 154.68 884.415 153.992L883.839 154.904C884.863 155.688 885.967 156.12 887.295 156.136C889.855 156.136 891.535 154.584 891.535 152.12V144.584H890.287ZM887.407 151.608C885.711 151.608 884.527 150.344 884.511 148.6C884.527 146.84 885.711 145.576 887.407 145.576C889.087 145.576 890.287 146.84 890.287 148.6C890.287 150.344 889.087 151.608 887.407 151.608Z" fill="#999999"/>
<path d="M900.811 153L900.795 147.432C900.779 145.64 899.627 144.536 897.547 144.536C896.107 144.536 895.195 144.952 894.107 145.672L894.635 146.552C895.515 145.928 896.379 145.576 897.307 145.576C898.795 145.576 899.563 146.328 899.563 147.56V148.088H896.795C894.811 148.104 893.643 149.032 893.643 150.504C893.643 151.944 894.763 153.048 896.507 153.048C897.851 153.048 898.923 152.6 899.595 151.688V153H900.811ZM896.747 152.008C895.563 152.008 894.811 151.384 894.811 150.456C894.811 149.512 895.547 149.08 896.955 149.08H899.579V150.104C899.259 151.304 898.171 152.008 896.747 152.008Z" fill="#999999"/>
<path d="M902.835 144.584V145.624L907.971 145.64L902.691 152.072V153L909.603 153.016V151.96L904.195 151.944L909.475 145.512V144.584H902.835Z" fill="#999999"/>
<path d="M879.695 197.8V209H880.975V197.8H879.695Z" fill="#999999"/>
<path d="M890.287 200.584V202.296C889.679 201.176 888.591 200.52 887.151 200.536C884.895 200.552 883.343 202.2 883.343 204.568C883.343 206.952 884.911 208.632 887.183 208.632C888.607 208.632 889.695 207.992 890.287 206.872V208.152C890.287 209.928 889.087 211.064 887.247 211.064C886.127 211.048 885.247 210.68 884.415 209.992L883.839 210.904C884.863 211.688 885.967 212.12 887.295 212.136C889.855 212.136 891.535 210.584 891.535 208.12V200.584H890.287ZM887.407 207.608C885.711 207.608 884.527 206.344 884.511 204.6C884.527 202.84 885.711 201.576 887.407 201.576C889.087 201.576 890.287 202.84 890.287 204.6C890.287 206.344 889.087 207.608 887.407 207.608Z" fill="#999999"/>
<path d="M900.811 209L900.795 203.432C900.779 201.64 899.627 200.536 897.547 200.536C896.107 200.536 895.195 200.952 894.107 201.672L894.635 202.552C895.515 201.928 896.379 201.576 897.307 201.576C898.795 201.576 899.563 202.328 899.563 203.56V204.088H896.795C894.811 204.104 893.643 205.032 893.643 206.504C893.643 207.944 894.763 209.048 896.507 209.048C897.851 209.048 898.923 208.6 899.595 207.688V209H900.811ZM896.747 208.008C895.563 208.008 894.811 207.384 894.811 206.456C894.811 205.512 895.547 205.08 896.955 205.08H899.579V206.104C899.259 207.304 898.171 208.008 896.747 208.008Z" fill="#999999"/>
<path d="M902.835 200.584V201.624L907.971 201.64L902.691 208.072V209L909.603 209.016V207.96L904.195 207.944L909.475 201.512V200.584H902.835Z" fill="#999999"/>
<path d="M879.695 253.8V265H880.975V253.8H879.695Z" fill="#999999"/>
<path d="M890.287 256.584V258.296C889.679 257.176 888.591 256.52 887.151 256.536C884.895 256.552 883.343 258.2 883.343 260.568C883.343 262.952 884.911 264.632 887.183 264.632C888.607 264.632 889.695 263.992 890.287 262.872V264.152C890.287 265.928 889.087 267.064 887.247 267.064C886.127 267.048 885.247 266.68 884.415 265.992L883.839 266.904C884.863 267.688 885.967 268.12 887.295 268.136C889.855 268.136 891.535 266.584 891.535 264.12V256.584H890.287ZM887.407 263.608C885.711 263.608 884.527 262.344 884.511 260.6C884.527 258.84 885.711 257.576 887.407 257.576C889.087 257.576 890.287 258.84 890.287 260.6C890.287 262.344 889.087 263.608 887.407 263.608Z" fill="#999999"/>
<path d="M900.811 265L900.795 259.432C900.779 257.64 899.627 256.536 897.547 256.536C896.107 256.536 895.195 256.952 894.107 257.672L894.635 258.552C895.515 257.928 896.379 257.576 897.307 257.576C898.795 257.576 899.563 258.328 899.563 259.56V260.088H896.795C894.811 260.104 893.643 261.032 893.643 262.504C893.643 263.944 894.763 265.048 896.507 265.048C897.851 265.048 898.923 264.6 899.595 263.688V265H900.811ZM896.747 264.008C895.563 264.008 894.811 263.384 894.811 262.456C894.811 261.512 895.547 261.08 896.955 261.08H899.579V262.104C899.259 263.304 898.171 264.008 896.747 264.008Z" fill="#999999"/>
<path d="M902.835 256.584V257.624L907.971 257.64L902.691 264.072V265L909.603 265.016V263.96L904.195 263.944L909.475 257.512V256.584H902.835Z" fill="#999999"/>
<path d="M680.479 97L677.839 93.176C679.455 92.664 680.367 91.4 680.367 89.56C680.367 87.176 678.751 85.8 675.951 85.8H671.695V97H672.975V93.448H675.951C676.207 93.448 676.447 93.432 676.671 93.416L679.023 97H680.479ZM672.975 92.264V86.984H675.951C677.983 86.984 679.135 87.88 679.135 89.592C679.135 91.352 677.983 92.264 675.951 92.264H672.975Z" fill="#999999"/>
<path d="M688.65 85.592L687.386 85.016L685.466 87.176H686.666L688.65 85.592ZM686.41 88.536C683.962 88.552 682.234 90.28 682.234 92.792C682.234 95.304 683.946 97.048 686.426 97.048C687.834 97.048 689.018 96.536 689.818 95.656L689.13 94.936C688.474 95.624 687.562 96.008 686.522 96.008C684.874 96.008 683.674 94.92 683.466 93.256H690.346C690.474 90.408 689.13 88.536 686.41 88.536ZM683.466 92.264C683.642 90.632 684.794 89.576 686.41 89.576C688.058 89.576 689.146 90.632 689.226 92.264H683.466Z" fill="#999999"/>
<path d="M696.936 90.248L697.416 89.288C696.712 88.824 695.736 88.52 694.728 88.52C693.192 88.52 691.8 89.208 691.8 90.808C691.784 93.784 696.504 92.744 696.456 94.792C696.44 95.64 695.64 96.024 694.648 96.024C693.656 96.024 692.568 95.624 691.848 94.952L691.368 95.864C692.168 96.632 693.4 97.048 694.6 97.048C696.216 97.048 697.688 96.312 697.688 94.664C697.688 91.64 692.984 92.616 692.984 90.712C692.984 89.912 693.704 89.576 694.648 89.576C695.432 89.576 696.28 89.832 696.936 90.248Z" fill="#999999"/>
<path d="M699.194 88.584V89.624L704.33 89.64L699.05 96.072V97L705.962 97.016V95.96L700.554 95.944L705.834 89.512V88.584H699.194Z" fill="#999999"/>
<path d="M712.736 88.536C711.264 88.536 710.112 89.224 709.488 90.392V85.128H708.24V97H709.488V95.192C710.112 96.36 711.264 97.048 712.768 97.048C715.152 97.048 716.784 95.304 716.784 92.808C716.784 90.296 715.12 88.536 712.736 88.536ZM712.512 95.944C710.736 95.944 709.488 94.632 709.488 92.776C709.488 90.936 710.736 89.608 712.512 89.608C714.272 89.608 715.52 90.952 715.52 92.776C715.52 94.616 714.272 95.944 712.512 95.944Z" fill="#999999"/>
<path d="M722.3 88.536C719.852 88.552 718.124 90.28 718.124 92.792C718.124 95.304 719.836 97.048 722.316 97.048C723.724 97.048 724.908 96.536 725.708 95.656L725.02 94.936C724.364 95.624 723.452 96.008 722.412 96.008C720.764 96.008 719.564 94.92 719.356 93.256H726.236C726.364 90.408 725.02 88.536 722.3 88.536ZM719.356 92.264C719.532 90.632 720.684 89.576 722.3 89.576C723.948 89.576 725.036 90.632 725.116 92.264H719.356Z" fill="#999999"/>
<path d="M732.891 88.536C731.355 88.552 730.219 89.16 729.627 90.44V88.584H728.379V97H729.627V92.488C729.771 90.856 730.795 89.752 732.459 89.736C733.947 89.736 734.843 90.632 734.843 92.136V97H736.091V91.816C736.091 89.768 734.907 88.536 732.891 88.536Z" fill="#999999"/>
<path d="M743.877 85.32C743.413 85.32 743.061 85.672 743.061 86.168C743.061 86.648 743.413 87.016 743.877 87.016C744.341 87.016 744.693 86.648 744.693 86.168C744.693 85.672 744.341 85.32 743.877 85.32ZM743.269 88.584V97H744.501V88.584H743.269Z" fill="#999999"/>
<path d="M753.631 88.584V90.296C753.023 89.176 751.935 88.52 750.495 88.536C748.239 88.552 746.687 90.2 746.687 92.568C746.687 94.952 748.255 96.632 750.527 96.632C751.951 96.632 753.039 95.992 753.631 94.872V96.152C753.631 97.928 752.431 99.064 750.591 99.064C749.471 99.048 748.591 98.68 747.759 97.992L747.183 98.904C748.207 99.688 749.311 100.12 750.639 100.136C753.199 100.136 754.879 98.584 754.879 96.12V88.584H753.631ZM750.751 95.608C749.055 95.608 747.871 94.344 747.855 92.6C747.871 90.84 749.055 89.576 750.751 89.576C752.431 89.576 753.631 90.84 753.631 92.6C753.631 94.344 752.431 95.608 750.751 95.608Z" fill="#999999"/>
<path d="M764.155 97L764.139 91.432C764.123 89.64 762.971 88.536 760.891 88.536C759.451 88.536 758.539 88.952 757.451 89.672L757.979 90.552C758.859 89.928 759.723 89.576 760.651 89.576C762.139 89.576 762.907 90.328 762.907 91.56V92.088H760.139C758.155 92.104 756.987 93.032 756.987 94.504C756.987 95.944 758.107 97.048 759.851 97.048C761.195 97.048 762.267 96.6 762.939 95.688V97H764.155ZM760.091 96.008C758.907 96.008 758.155 95.384 758.155 94.456C758.155 93.512 758.891 93.08 760.299 93.08H762.923V94.104C762.603 95.304 761.515 96.008 760.091 96.008Z" fill="#999999"/>
<path d="M766.178 88.584V89.624L771.314 89.64L766.034 96.072V97L772.946 97.016V95.96L767.538 95.944L772.818 89.512V88.584H766.178Z" fill="#999999"/>
<path d="M709.695 141.8V153H710.975V141.8H709.695Z" fill="#999999"/>
<path d="M720.287 144.584V146.296C719.679 145.176 718.591 144.52 717.151 144.536C714.895 144.552 713.343 146.2 713.343 148.568C713.343 150.952 714.911 152.632 717.183 152.632C718.607 152.632 719.695 151.992 720.287 150.872V152.152C720.287 153.928 719.087 155.064 717.247 155.064C716.127 155.048 715.247 154.68 714.415 153.992L713.839 154.904C714.863 155.688 715.967 156.12 717.295 156.136C719.855 156.136 721.535 154.584 721.535 152.12V144.584H720.287ZM717.407 151.608C715.711 151.608 714.527 150.344 714.511 148.6C714.527 146.84 715.711 145.576 717.407 145.576C719.087 145.576 720.287 146.84 720.287 148.6C720.287 150.344 719.087 151.608 717.407 151.608Z" fill="#999999"/>
<path d="M730.811 153L730.795 147.432C730.779 145.64 729.627 144.536 727.547 144.536C726.107 144.536 725.195 144.952 724.107 145.672L724.635 146.552C725.515 145.928 726.379 145.576 727.307 145.576C728.795 145.576 729.563 146.328 729.563 147.56V148.088H726.795C724.811 148.104 723.643 149.032 723.643 150.504C723.643 151.944 724.763 153.048 726.507 153.048C727.851 153.048 728.923 152.6 729.595 151.688V153H730.811ZM726.747 152.008C725.563 152.008 724.811 151.384 724.811 150.456C724.811 149.512 725.547 149.08 726.955 149.08H729.579V150.104C729.259 151.304 728.171 152.008 726.747 152.008Z" fill="#999999"/>
<path d="M732.835 144.584V145.624L737.971 145.64L732.691 152.072V153L739.603 153.016V151.96L734.195 151.944L739.475 145.512V144.584H732.835Z" fill="#999999"/>
<path d="M688.695 253.8V265H689.975V255.912L696.695 265H698.007V253.8H696.743V262.904L690.023 253.8H688.695Z" fill="#999999"/>
<path d="M704.566 256.536C702.118 256.552 700.39 258.28 700.39 260.792C700.39 263.304 702.102 265.048 704.582 265.048C705.99 265.048 707.174 264.536 707.974 263.656L707.286 262.936C706.63 263.624 705.718 264.008 704.678 264.008C703.03 264.008 701.83 262.92 701.622 261.256H708.502C708.63 258.408 707.286 256.536 704.566 256.536ZM701.622 260.264C701.798 258.632 702.95 257.576 704.566 257.576C706.214 257.576 707.302 258.632 707.382 260.264H701.622Z" fill="#999999"/>
<path d="M721.444 256.536C719.828 256.552 718.644 257.256 718.116 258.728C717.764 257.336 716.676 256.536 715.092 256.536C713.572 256.552 712.436 257.176 711.876 258.488V256.584H710.644V265H711.876V260.856C711.876 259.032 712.916 257.768 714.644 257.72C716.116 257.72 716.98 258.616 716.98 260.136V265H718.244V260.856C718.244 259.032 719.252 257.768 720.996 257.72C722.452 257.72 723.332 258.616 723.332 260.136V265H724.58V259.816C724.58 257.768 723.412 256.536 721.444 256.536Z" fill="#999999"/>
<path d="M732.346 253.32C731.882 253.32 731.53 253.672 731.53 254.168C731.53 254.648 731.882 255.016 732.346 255.016C732.81 255.016 733.162 254.648 733.162 254.168C733.162 253.672 732.81 253.32 732.346 253.32ZM731.738 256.584V265H732.97V256.584H731.738Z" fill="#999999"/>
<path d="M742.1 256.584V258.296C741.492 257.176 740.404 256.52 738.964 256.536C736.708 256.552 735.156 258.2 735.156 260.568C735.156 262.952 736.724 264.632 738.996 264.632C740.42 264.632 741.508 263.992 742.1 262.872V264.152C742.1 265.928 740.9 267.064 739.06 267.064C737.94 267.048 737.06 266.68 736.228 265.992L735.652 266.904C736.676 267.688 737.78 268.12 739.108 268.136C741.668 268.136 743.348 266.584 743.348 264.12V256.584H742.1ZM739.22 263.608C737.524 263.608 736.34 262.344 736.324 260.6C736.34 258.84 737.524 257.576 739.22 257.576C740.9 257.576 742.1 258.84 742.1 260.6C742.1 262.344 740.9 263.608 739.22 263.608Z" fill="#999999"/>
<path d="M752.624 265L752.608 259.432C752.592 257.64 751.44 256.536 749.36 256.536C747.92 256.536 747.008 256.952 745.92 257.672L746.448 258.552C747.328 257.928 748.192 257.576 749.12 257.576C750.608 257.576 751.376 258.328 751.376 259.56V260.088H748.608C746.624 260.104 745.456 261.032 745.456 262.504C745.456 263.944 746.576 265.048 748.32 265.048C749.664 265.048 750.736 264.6 751.408 263.688V265H752.624ZM748.56 264.008C747.376 264.008 746.624 263.384 746.624 262.456C746.624 261.512 747.36 261.08 748.768 261.08H751.392V262.104C751.072 263.304 749.984 264.008 748.56 264.008Z" fill="#999999"/>
<path d="M754.647 256.584V257.624L759.783 257.64L754.503 264.072V265L761.415 265.016V263.96L756.007 263.944L761.287 257.512V256.584H754.647Z" fill="#999999"/>
<path d="M709.695 197.8V209H710.975V197.8H709.695Z" fill="#999999"/>
<path d="M720.287 200.584V202.296C719.679 201.176 718.591 200.52 717.151 200.536C714.895 200.552 713.343 202.2 713.343 204.568C713.343 206.952 714.911 208.632 717.183 208.632C718.607 208.632 719.695 207.992 720.287 206.872V208.152C720.287 209.928 719.087 211.064 717.247 211.064C716.127 211.048 715.247 210.68 714.415 209.992L713.839 210.904C714.863 211.688 715.967 212.12 717.295 212.136C719.855 212.136 721.535 210.584 721.535 208.12V200.584H720.287ZM717.407 207.608C715.711 207.608 714.527 206.344 714.511 204.6C714.527 202.84 715.711 201.576 717.407 201.576C719.087 201.576 720.287 202.84 720.287 204.6C720.287 206.344 719.087 207.608 717.407 207.608Z" fill="#999999"/>
<path d="M730.811 209L730.795 203.432C730.779 201.64 729.627 200.536 727.547 200.536C726.107 200.536 725.195 200.952 724.107 201.672L724.635 202.552C725.515 201.928 726.379 201.576 727.307 201.576C728.795 201.576 729.563 202.328 729.563 203.56V204.088H726.795C724.811 204.104 723.643 205.032 723.643 206.504C723.643 207.944 724.763 209.048 726.507 209.048C727.851 209.048 728.923 208.6 729.595 207.688V209H730.811ZM726.747 208.008C725.563 208.008 724.811 207.384 724.811 206.456C724.811 205.512 725.547 205.08 726.955 205.08H729.579V206.104C729.259 207.304 728.171 208.008 726.747 208.008Z" fill="#999999"/>
<path d="M732.835 200.584V201.624L737.971 201.64L732.691 208.072V209L739.603 209.016V207.96L734.195 207.944L739.475 201.512V200.584H732.835Z" fill="#999999"/>
<path d="M513.479 97L510.839 93.176C512.455 92.664 513.367 91.4 513.367 89.56C513.367 87.176 511.751 85.8 508.951 85.8H504.695V97H505.975V93.448H508.951C509.207 93.448 509.447 93.432 509.671 93.416L512.023 97H513.479ZM505.975 92.264V86.984H508.951C510.983 86.984 512.135 87.88 512.135 89.592C512.135 91.352 510.983 92.264 508.951 92.264H505.975Z" fill="#999999"/>
<path d="M521.65 85.592L520.386 85.016L518.466 87.176H519.666L521.65 85.592ZM519.41 88.536C516.962 88.552 515.234 90.28 515.234 92.792C515.234 95.304 516.946 97.048 519.426 97.048C520.834 97.048 522.018 96.536 522.818 95.656L522.13 94.936C521.474 95.624 520.562 96.008 519.522 96.008C517.874 96.008 516.674 94.92 516.466 93.256H523.346C523.474 90.408 522.13 88.536 519.41 88.536ZM516.466 92.264C516.642 90.632 517.794 89.576 519.41 89.576C521.058 89.576 522.146 90.632 522.226 92.264H516.466Z" fill="#999999"/>
<path d="M529.936 90.248L530.416 89.288C529.712 88.824 528.736 88.52 527.728 88.52C526.192 88.52 524.8 89.208 524.8 90.808C524.784 93.784 529.504 92.744 529.456 94.792C529.44 95.64 528.64 96.024 527.648 96.024C526.656 96.024 525.568 95.624 524.848 94.952L524.368 95.864C525.168 96.632 526.4 97.048 527.6 97.048C529.216 97.048 530.688 96.312 530.688 94.664C530.688 91.64 525.984 92.616 525.984 90.712C525.984 89.912 526.704 89.576 527.648 89.576C528.432 89.576 529.28 89.832 529.936 90.248Z" fill="#999999"/>
<path d="M532.194 88.584V89.624L537.33 89.64L532.05 96.072V97L538.962 97.016V95.96L533.554 95.944L538.834 89.512V88.584H532.194Z" fill="#999999"/>
<path d="M545.736 88.536C544.264 88.536 543.112 89.224 542.488 90.392V85.128H541.24V97H542.488V95.192C543.112 96.36 544.264 97.048 545.768 97.048C548.152 97.048 549.784 95.304 549.784 92.808C549.784 90.296 548.12 88.536 545.736 88.536ZM545.512 95.944C543.736 95.944 542.488 94.632 542.488 92.776C542.488 90.936 543.736 89.608 545.512 89.608C547.272 89.608 548.52 90.952 548.52 92.776C548.52 94.616 547.272 95.944 545.512 95.944Z" fill="#999999"/>
<path d="M555.3 88.536C552.852 88.552 551.124 90.28 551.124 92.792C551.124 95.304 552.836 97.048 555.316 97.048C556.724 97.048 557.908 96.536 558.708 95.656L558.02 94.936C557.364 95.624 556.452 96.008 555.412 96.008C553.764 96.008 552.564 94.92 552.356 93.256H559.236C559.364 90.408 558.02 88.536 555.3 88.536ZM552.356 92.264C552.532 90.632 553.684 89.576 555.3 89.576C556.948 89.576 558.036 90.632 558.116 92.264H552.356Z" fill="#999999"/>
<path d="M565.891 88.536C564.355 88.552 563.219 89.16 562.627 90.44V88.584H561.379V97H562.627V92.488C562.771 90.856 563.795 89.752 565.459 89.736C566.947 89.736 567.843 90.632 567.843 92.136V97H569.091V91.816C569.091 89.768 567.907 88.536 565.891 88.536Z" fill="#999999"/>
<path d="M576.877 85.32C576.413 85.32 576.061 85.672 576.061 86.168C576.061 86.648 576.413 87.016 576.877 87.016C577.341 87.016 577.693 86.648 577.693 86.168C577.693 85.672 577.341 85.32 576.877 85.32ZM576.269 88.584V97H577.501V88.584H576.269Z" fill="#999999"/>
<path d="M586.631 88.584V90.296C586.023 89.176 584.935 88.52 583.495 88.536C581.239 88.552 579.687 90.2 579.687 92.568C579.687 94.952 581.255 96.632 583.527 96.632C584.951 96.632 586.039 95.992 586.631 94.872V96.152C586.631 97.928 585.431 99.064 583.591 99.064C582.471 99.048 581.591 98.68 580.759 97.992L580.183 98.904C581.207 99.688 582.311 100.12 583.639 100.136C586.199 100.136 587.879 98.584 587.879 96.12V88.584H586.631ZM583.751 95.608C582.055 95.608 580.871 94.344 580.855 92.6C580.871 90.84 582.055 89.576 583.751 89.576C585.431 89.576 586.631 90.84 586.631 92.6C586.631 94.344 585.431 95.608 583.751 95.608Z" fill="#999999"/>
<path d="M597.155 97L597.139 91.432C597.123 89.64 595.971 88.536 593.891 88.536C592.451 88.536 591.539 88.952 590.451 89.672L590.979 90.552C591.859 89.928 592.723 89.576 593.651 89.576C595.139 89.576 595.907 90.328 595.907 91.56V92.088H593.139C591.155 92.104 589.987 93.032 589.987 94.504C589.987 95.944 591.107 97.048 592.851 97.048C594.195 97.048 595.267 96.6 595.939 95.688V97H597.155ZM593.091 96.008C591.907 96.008 591.155 95.384 591.155 94.456C591.155 93.512 591.891 93.08 593.299 93.08H595.923V94.104C595.603 95.304 594.515 96.008 593.091 96.008Z" fill="#999999"/>
<path d="M599.178 88.584V89.624L604.314 89.64L599.034 96.072V97L605.946 97.016V95.96L600.538 95.944L605.818 89.512V88.584H599.178Z" fill="#999999"/>
<path d="M539.695 141.8V153H540.975V141.8H539.695Z" fill="#999999"/>
<path d="M550.287 144.584V146.296C549.679 145.176 548.591 144.52 547.151 144.536C544.895 144.552 543.343 146.2 543.343 148.568C543.343 150.952 544.911 152.632 547.183 152.632C548.607 152.632 549.695 151.992 550.287 150.872V152.152C550.287 153.928 549.087 155.064 547.247 155.064C546.127 155.048 545.247 154.68 544.415 153.992L543.839 154.904C544.863 155.688 545.967 156.12 547.295 156.136C549.855 156.136 551.535 154.584 551.535 152.12V144.584H550.287ZM547.407 151.608C545.711 151.608 544.527 150.344 544.511 148.6C544.527 146.84 545.711 145.576 547.407 145.576C549.087 145.576 550.287 146.84 550.287 148.6C550.287 150.344 549.087 151.608 547.407 151.608Z" fill="#999999"/>
<path d="M560.811 153L560.795 147.432C560.779 145.64 559.627 144.536 557.547 144.536C556.107 144.536 555.195 144.952 554.107 145.672L554.635 146.552C555.515 145.928 556.379 145.576 557.307 145.576C558.795 145.576 559.563 146.328 559.563 147.56V148.088H556.795C554.811 148.104 553.643 149.032 553.643 150.504C553.643 151.944 554.763 153.048 556.507 153.048C557.851 153.048 558.923 152.6 559.595 151.688V153H560.811ZM556.747 152.008C555.563 152.008 554.811 151.384 554.811 150.456C554.811 149.512 555.547 149.08 556.955 149.08H559.579V150.104C559.259 151.304 558.171 152.008 556.747 152.008Z" fill="#999999"/>
<path d="M562.835 144.584V145.624L567.971 145.64L562.691 152.072V153L569.603 153.016V151.96L564.195 151.944L569.475 145.512V144.584H562.835Z" fill="#999999"/>
<path d="M518.695 253.8V265H519.975V255.912L526.695 265H528.007V253.8H526.743V262.904L520.023 253.8H518.695Z" fill="#999999"/>
<path d="M534.566 256.536C532.118 256.552 530.39 258.28 530.39 260.792C530.39 263.304 532.102 265.048 534.582 265.048C535.99 265.048 537.174 264.536 537.974 263.656L537.286 262.936C536.63 263.624 535.718 264.008 534.678 264.008C533.03 264.008 531.83 262.92 531.622 261.256H538.502C538.63 258.408 537.286 256.536 534.566 256.536ZM531.622 260.264C531.798 258.632 532.95 257.576 534.566 257.576C536.214 257.576 537.302 258.632 537.382 260.264H531.622Z" fill="#999999"/>
<path d="M551.444 256.536C549.828 256.552 548.644 257.256 548.116 258.728C547.764 257.336 546.676 256.536 545.092 256.536C543.572 256.552 542.436 257.176 541.876 258.488V256.584H540.644V265H541.876V260.856C541.876 259.032 542.916 257.768 544.644 257.72C546.116 257.72 546.98 258.616 546.98 260.136V265H548.244V260.856C548.244 259.032 549.252 257.768 550.996 257.72C552.452 257.72 553.332 258.616 553.332 260.136V265H554.58V259.816C554.58 257.768 553.412 256.536 551.444 256.536Z" fill="#999999"/>
<path d="M562.346 253.32C561.882 253.32 561.53 253.672 561.53 254.168C561.53 254.648 561.882 255.016 562.346 255.016C562.81 255.016 563.162 254.648 563.162 254.168C563.162 253.672 562.81 253.32 562.346 253.32ZM561.738 256.584V265H562.97V256.584H561.738Z" fill="#999999"/>
<path d="M572.1 256.584V258.296C571.492 257.176 570.404 256.52 568.964 256.536C566.708 256.552 565.156 258.2 565.156 260.568C565.156 262.952 566.724 264.632 568.996 264.632C570.42 264.632 571.508 263.992 572.1 262.872V264.152C572.1 265.928 570.9 267.064 569.06 267.064C567.94 267.048 567.06 266.68 566.228 265.992L565.652 266.904C566.676 267.688 567.78 268.12 569.108 268.136C571.668 268.136 573.348 266.584 573.348 264.12V256.584H572.1ZM569.22 263.608C567.524 263.608 566.34 262.344 566.324 260.6C566.34 258.84 567.524 257.576 569.22 257.576C570.9 257.576 572.1 258.84 572.1 260.6C572.1 262.344 570.9 263.608 569.22 263.608Z" fill="#999999"/>
<path d="M582.624 265L582.608 259.432C582.592 257.64 581.44 256.536 579.36 256.536C577.92 256.536 577.008 256.952 575.92 257.672L576.448 258.552C577.328 257.928 578.192 257.576 579.12 257.576C580.608 257.576 581.376 258.328 581.376 259.56V260.088H578.608C576.624 260.104 575.456 261.032 575.456 262.504C575.456 263.944 576.576 265.048 578.32 265.048C579.664 265.048 580.736 264.6 581.408 263.688V265H582.624ZM578.56 264.008C577.376 264.008 576.624 263.384 576.624 262.456C576.624 261.512 577.36 261.08 578.768 261.08H581.392V262.104C581.072 263.304 579.984 264.008 578.56 264.008Z" fill="#999999"/>
<path d="M584.647 256.584V257.624L589.783 257.64L584.503 264.072V265L591.415 265.016V263.96L586.007 263.944L591.287 257.512V256.584H584.647Z" fill="#999999"/>
<path d="M539.695 197.8V209H540.975V197.8H539.695Z" fill="#999999"/>
<path d="M550.287 200.584V202.296C549.679 201.176 548.591 200.52 547.151 200.536C544.895 200.552 543.343 202.2 543.343 204.568C543.343 206.952 544.911 208.632 547.183 208.632C548.607 208.632 549.695 207.992 550.287 206.872V208.152C550.287 209.928 549.087 211.064 547.247 211.064C546.127 211.048 545.247 210.68 544.415 209.992L543.839 210.904C544.863 211.688 545.967 212.12 547.295 212.136C549.855 212.136 551.535 210.584 551.535 208.12V200.584H550.287ZM547.407 207.608C545.711 207.608 544.527 206.344 544.511 204.6C544.527 202.84 545.711 201.576 547.407 201.576C549.087 201.576 550.287 202.84 550.287 204.6C550.287 206.344 549.087 207.608 547.407 207.608Z" fill="#999999"/>
<path d="M560.811 209L560.795 203.432C560.779 201.64 559.627 200.536 557.547 200.536C556.107 200.536 555.195 200.952 554.107 201.672L554.635 202.552C555.515 201.928 556.379 201.576 557.307 201.576C558.795 201.576 559.563 202.328 559.563 203.56V204.088H556.795C554.811 204.104 553.643 205.032 553.643 206.504C553.643 207.944 554.763 209.048 556.507 209.048C557.851 209.048 558.923 208.6 559.595 207.688V209H560.811ZM556.747 208.008C555.563 208.008 554.811 207.384 554.811 206.456C554.811 205.512 555.547 205.08 556.955 205.08H559.579V206.104C559.259 207.304 558.171 208.008 556.747 208.008Z" fill="#999999"/>
<path d="M562.835 200.584V201.624L567.971 201.64L562.691 208.072V209L569.603 209.016V207.96L564.195 207.944L569.475 201.512V200.584H562.835Z" fill="#999999"/>
<path d="M369.695 85.8V97H370.975V85.8H369.695Z" fill="#999999"/>
<path d="M380.287 88.584V90.296C379.679 89.176 378.591 88.52 377.151 88.536C374.895 88.552 373.343 90.2 373.343 92.568C373.343 94.952 374.911 96.632 377.183 96.632C378.607 96.632 379.695 95.992 380.287 94.872V96.152C380.287 97.928 379.087 99.064 377.247 99.064C376.127 99.048 375.247 98.68 374.415 97.992L373.839 98.904C374.863 99.688 375.967 100.12 377.295 100.136C379.855 100.136 381.535 98.584 381.535 96.12V88.584H380.287ZM377.407 95.608C375.711 95.608 374.527 94.344 374.511 92.6C374.527 90.84 375.711 89.576 377.407 89.576C379.087 89.576 380.287 90.84 380.287 92.6C380.287 94.344 379.087 95.608 377.407 95.608Z" fill="#999999"/>
<path d="M390.811 97L390.795 91.432C390.779 89.64 389.627 88.536 387.547 88.536C386.107 88.536 385.195 88.952 384.107 89.672L384.635 90.552C385.515 89.928 386.379 89.576 387.307 89.576C388.795 89.576 389.563 90.328 389.563 91.56V92.088H386.795C384.811 92.104 383.643 93.032 383.643 94.504C383.643 95.944 384.763 97.048 386.507 97.048C387.851 97.048 388.923 96.6 389.595 95.688V97H390.811ZM386.747 96.008C385.563 96.008 384.811 95.384 384.811 94.456C384.811 93.512 385.547 93.08 386.955 93.08H389.579V94.104C389.259 95.304 388.171 96.008 386.747 96.008Z" fill="#999999"/>
<path d="M392.835 88.584V89.624L397.971 89.64L392.691 96.072V97L399.603 97.016V95.96L394.195 95.944L399.475 89.512V88.584H392.835Z" fill="#999999"/>
<path d="M348.695 141.8V153H349.975V143.912L356.695 153H358.007V141.8H356.743V150.904L350.023 141.8H348.695Z" fill="#999999"/>
<path d="M364.566 144.536C362.118 144.552 360.39 146.28 360.39 148.792C360.39 151.304 362.102 153.048 364.582 153.048C365.99 153.048 367.174 152.536 367.974 151.656L367.286 150.936C366.63 151.624 365.718 152.008 364.678 152.008C363.03 152.008 361.83 150.92 361.622 149.256H368.502C368.63 146.408 367.286 144.536 364.566 144.536ZM361.622 148.264C361.798 146.632 362.95 145.576 364.566 145.576C366.214 145.576 367.302 146.632 367.382 148.264H361.622Z" fill="#999999"/>
<path d="M381.444 144.536C379.828 144.552 378.644 145.256 378.116 146.728C377.764 145.336 376.676 144.536 375.092 144.536C373.572 144.552 372.436 145.176 371.876 146.488V144.584H370.644V153H371.876V148.856C371.876 147.032 372.916 145.768 374.644 145.72C376.116 145.72 376.98 146.616 376.98 148.136V153H378.244V148.856C378.244 147.032 379.252 145.768 380.996 145.72C382.452 145.72 383.332 146.616 383.332 148.136V153H384.58V147.816C384.58 145.768 383.412 144.536 381.444 144.536Z" fill="#999999"/>
<path d="M392.346 141.32C391.882 141.32 391.53 141.672 391.53 142.168C391.53 142.648 391.882 143.016 392.346 143.016C392.81 143.016 393.162 142.648 393.162 142.168C393.162 141.672 392.81 141.32 392.346 141.32ZM391.738 144.584V153H392.97V144.584H391.738Z" fill="#999999"/>
<path d="M402.1 144.584V146.296C401.492 145.176 400.404 144.52 398.964 144.536C396.708 144.552 395.156 146.2 395.156 148.568C395.156 150.952 396.724 152.632 398.996 152.632C400.42 152.632 401.508 151.992 402.1 150.872V152.152C402.1 153.928 400.9 155.064 399.06 155.064C397.94 155.048 397.06 154.68 396.228 153.992L395.652 154.904C396.676 155.688 397.78 156.12 399.108 156.136C401.668 156.136 403.348 154.584 403.348 152.12V144.584H402.1ZM399.22 151.608C397.524 151.608 396.34 150.344 396.324 148.6C396.34 146.84 397.524 145.576 399.22 145.576C400.9 145.576 402.1 146.84 402.1 148.6C402.1 150.344 400.9 151.608 399.22 151.608Z" fill="#999999"/>
<path d="M412.624 153L412.608 147.432C412.592 145.64 411.44 144.536 409.36 144.536C407.92 144.536 407.008 144.952 405.92 145.672L406.448 146.552C407.328 145.928 408.192 145.576 409.12 145.576C410.608 145.576 411.376 146.328 411.376 147.56V148.088H408.608C406.624 148.104 405.456 149.032 405.456 150.504C405.456 151.944 406.576 153.048 408.32 153.048C409.664 153.048 410.736 152.6 411.408 151.688V153H412.624ZM408.56 152.008C407.376 152.008 406.624 151.384 406.624 150.456C406.624 149.512 407.36 149.08 408.768 149.08H411.392V150.104C411.072 151.304 409.984 152.008 408.56 152.008Z" fill="#999999"/>
<path d="M414.647 144.584V145.624L419.783 145.64L414.503 152.072V153L421.415 153.016V151.96L416.007 151.944L421.287 145.512V144.584H414.647Z" fill="#999999"/>
<path d="M348.695 197.8V209H349.975V199.912L356.695 209H358.007V197.8H356.743V206.904L350.023 197.8H348.695Z" fill="#999999"/>
<path d="M364.566 200.536C362.118 200.552 360.39 202.28 360.39 204.792C360.39 207.304 362.102 209.048 364.582 209.048C365.99 209.048 367.174 208.536 367.974 207.656L367.286 206.936C366.63 207.624 365.718 208.008 364.678 208.008C363.03 208.008 361.83 206.92 361.622 205.256H368.502C368.63 202.408 367.286 200.536 364.566 200.536ZM361.622 204.264C361.798 202.632 362.95 201.576 364.566 201.576C366.214 201.576 367.302 202.632 367.382 204.264H361.622Z" fill="#999999"/>
<path d="M381.444 200.536C379.828 200.552 378.644 201.256 378.116 202.728C377.764 201.336 376.676 200.536 375.092 200.536C373.572 200.552 372.436 201.176 371.876 202.488V200.584H370.644V209H371.876V204.856C371.876 203.032 372.916 201.768 374.644 201.72C376.116 201.72 376.98 202.616 376.98 204.136V209H378.244V204.856C378.244 203.032 379.252 201.768 380.996 201.72C382.452 201.72 383.332 202.616 383.332 204.136V209H384.58V203.816C384.58 201.768 383.412 200.536 381.444 200.536Z" fill="#999999"/>
<path d="M392.346 197.32C391.882 197.32 391.53 197.672 391.53 198.168C391.53 198.648 391.882 199.016 392.346 199.016C392.81 199.016 393.162 198.648 393.162 198.168C393.162 197.672 392.81 197.32 392.346 197.32ZM391.738 200.584V209H392.97V200.584H391.738Z" fill="#999999"/>
<path d="M402.1 200.584V202.296C401.492 201.176 400.404 200.52 398.964 200.536C396.708 200.552 395.156 202.2 395.156 204.568C395.156 206.952 396.724 208.632 398.996 208.632C400.42 208.632 401.508 207.992 402.1 206.872V208.152C402.1 209.928 400.9 211.064 399.06 211.064C397.94 211.048 397.06 210.68 396.228 209.992L395.652 210.904C396.676 211.688 397.78 212.12 399.108 212.136C401.668 212.136 403.348 210.584 403.348 208.12V200.584H402.1ZM399.22 207.608C397.524 207.608 396.34 206.344 396.324 204.6C396.34 202.84 397.524 201.576 399.22 201.576C400.9 201.576 402.1 202.84 402.1 204.6C402.1 206.344 400.9 207.608 399.22 207.608Z" fill="#999999"/>
<path d="M412.624 209L412.608 203.432C412.592 201.64 411.44 200.536 409.36 200.536C407.92 200.536 407.008 200.952 405.92 201.672L406.448 202.552C407.328 201.928 408.192 201.576 409.12 201.576C410.608 201.576 411.376 202.328 411.376 203.56V204.088H408.608C406.624 204.104 405.456 205.032 405.456 206.504C405.456 207.944 406.576 209.048 408.32 209.048C409.664 209.048 410.736 208.6 411.408 207.688V209H412.624ZM408.56 208.008C407.376 208.008 406.624 207.384 406.624 206.456C406.624 205.512 407.36 205.08 408.768 205.08H411.392V206.104C411.072 207.304 409.984 208.008 408.56 208.008Z" fill="#999999"/>
<path d="M414.647 200.584V201.624L419.783 201.64L414.503 208.072V209L421.415 209.016V207.96L416.007 207.944L421.287 201.512V200.584H414.647Z" fill="#999999"/>
<path d="M348.695 253.8V265H349.975V255.912L356.695 265H358.007V253.8H356.743V262.904L350.023 253.8H348.695Z" fill="#999999"/>
<path d="M364.566 256.536C362.118 256.552 360.39 258.28 360.39 260.792C360.39 263.304 362.102 265.048 364.582 265.048C365.99 265.048 367.174 264.536 367.974 263.656L367.286 262.936C366.63 263.624 365.718 264.008 364.678 264.008C363.03 264.008 361.83 262.92 361.622 261.256H368.502C368.63 258.408 367.286 256.536 364.566 256.536ZM361.622 260.264C361.798 258.632 362.95 257.576 364.566 257.576C366.214 257.576 367.302 258.632 367.382 260.264H361.622Z" fill="#999999"/>
<path d="M381.444 256.536C379.828 256.552 378.644 257.256 378.116 258.728C377.764 257.336 376.676 256.536 375.092 256.536C373.572 256.552 372.436 257.176 371.876 258.488V256.584H370.644V265H371.876V260.856C371.876 259.032 372.916 257.768 374.644 257.72C376.116 257.72 376.98 258.616 376.98 260.136V265H378.244V260.856C378.244 259.032 379.252 257.768 380.996 257.72C382.452 257.72 383.332 258.616 383.332 260.136V265H384.58V259.816C384.58 257.768 383.412 256.536 381.444 256.536Z" fill="#999999"/>
<path d="M392.346 253.32C391.882 253.32 391.53 253.672 391.53 254.168C391.53 254.648 391.882 255.016 392.346 255.016C392.81 255.016 393.162 254.648 393.162 254.168C393.162 253.672 392.81 253.32 392.346 253.32ZM391.738 256.584V265H392.97V256.584H391.738Z" fill="#999999"/>
<path d="M402.1 256.584V258.296C401.492 257.176 400.404 256.52 398.964 256.536C396.708 256.552 395.156 258.2 395.156 260.568C395.156 262.952 396.724 264.632 398.996 264.632C400.42 264.632 401.508 263.992 402.1 262.872V264.152C402.1 265.928 400.9 267.064 399.06 267.064C397.94 267.048 397.06 266.68 396.228 265.992L395.652 266.904C396.676 267.688 397.78 268.12 399.108 268.136C401.668 268.136 403.348 266.584 403.348 264.12V256.584H402.1ZM399.22 263.608C397.524 263.608 396.34 262.344 396.324 260.6C396.34 258.84 397.524 257.576 399.22 257.576C400.9 257.576 402.1 258.84 402.1 260.6C402.1 262.344 400.9 263.608 399.22 263.608Z" fill="#999999"/>
<path d="M412.624 265L412.608 259.432C412.592 257.64 411.44 256.536 409.36 256.536C407.92 256.536 407.008 256.952 405.92 257.672L406.448 258.552C407.328 257.928 408.192 257.576 409.12 257.576C410.608 257.576 411.376 258.328 411.376 259.56V260.088H408.608C406.624 260.104 405.456 261.032 405.456 262.504C405.456 263.944 406.576 265.048 408.32 265.048C409.664 265.048 410.736 264.6 411.408 263.688V265H412.624ZM408.56 264.008C407.376 264.008 406.624 263.384 406.624 262.456C406.624 261.512 407.36 261.08 408.768 261.08H411.392V262.104C411.072 263.304 409.984 264.008 408.56 264.008Z" fill="#999999"/>
<path d="M414.647 256.584V257.624L419.783 257.64L414.503 264.072V265L421.415 265.016V263.96L416.007 263.944L421.287 257.512V256.584H414.647Z" fill="#999999"/>
<path d="M99 85.8L103.4 97H106.008L110.456 85.8H107.848L104.776 94.248L101.72 85.8H99Z" fill="#5E5E5E"/>
<path d="M114.38 88.312C111.756 88.312 109.948 90.072 109.948 92.728C109.948 95.336 111.692 97.096 114.444 97.096C115.996 97.096 117.26 96.536 118.124 95.576L116.828 94.264C116.236 94.856 115.468 95.176 114.652 95.176C113.548 95.176 112.716 94.536 112.428 93.448H118.604C118.812 90.312 117.404 88.312 114.38 88.312ZM112.38 91.992C112.572 90.856 113.308 90.12 114.396 90.12C115.532 90.12 116.268 90.856 116.3 91.992H112.38Z" fill="#5E5E5E"/>
<path d="M119.752 88.408V90.328L124.024 90.344L119.592 95.448V97L127.24 97.016V95.064H122.664L127.096 89.96V88.408H119.752Z" fill="#5E5E5E"/>
<path d="M132.568 88.312C129.944 88.312 128.135 90.072 128.135 92.728C128.135 95.336 129.88 97.096 132.632 97.096C134.184 97.096 135.448 96.536 136.312 95.576L135.015 94.264C134.423 94.856 133.656 95.176 132.84 95.176C131.736 95.176 130.903 94.536 130.615 93.448H136.792C137 90.312 135.592 88.312 132.568 88.312ZM130.568 91.992C130.76 90.856 131.495 90.12 132.583 90.12C133.719 90.12 134.455 90.856 134.487 91.992H130.568Z" fill="#5E5E5E"/>
<path d="M143.234 94.712C142.786 94.92 142.402 95.032 142.082 95.032C141.554 95.048 141.25 94.76 141.25 94.04V90.488H143.586V88.776H141.25V86.408H138.802V88.776H137.602V90.472H138.802V94.456C138.802 96.232 139.97 97.112 141.506 97.112C142.306 97.112 143.106 96.888 143.746 96.52L143.234 94.712Z" fill="#5E5E5E"/>
<path d="M147.776 84.728L146.416 87.4H148.24L149.696 85.48L147.776 84.728ZM150.72 84.728L149.376 87.4H151.2L152.656 85.48L150.72 84.728ZM149.056 88.312C146.288 88.312 144.432 90.056 144.432 92.696C144.432 95.32 146.288 97.096 149.056 97.096C151.808 97.096 153.664 95.32 153.664 92.696C153.664 90.056 151.808 88.312 149.056 88.312ZM149.056 90.36C150.32 90.36 151.2 91.32 151.2 92.728C151.2 94.136 150.32 95.096 149.056 95.096C147.776 95.096 146.912 94.136 146.912 92.728C146.912 91.32 147.776 90.36 149.056 90.36Z" fill="#5E5E5E"/>
<path d="M156.525 84.552C155.741 84.552 155.197 85.128 155.197 85.928C155.197 86.728 155.741 87.304 156.525 87.304C157.309 87.304 157.853 86.728 157.853 85.928C157.853 85.128 157.309 84.552 156.525 84.552ZM155.293 88.392V97H157.757V88.392H155.293Z" fill="#5E5E5E"/>
<path d="M165.213 84.552C164.429 84.552 163.885 85.128 163.885 85.928C163.885 86.728 164.429 87.304 165.213 87.304C165.997 87.304 166.541 86.728 166.541 85.928C166.541 85.128 165.997 84.552 165.213 84.552ZM163.981 88.392V97H166.445V88.392H163.981Z" fill="#5E5E5E"/>
<path d="M174.249 88.296C172.905 88.312 171.881 88.824 171.273 89.896V88.392H168.809V97H171.273V92.76C171.273 91.496 172.009 90.568 173.241 90.552C174.297 90.552 174.937 91.224 174.937 92.312V97H177.401V91.592C177.401 89.576 176.169 88.296 174.249 88.296Z" fill="#5E5E5E"/>
<path d="M183.464 87.048C183.816 87.048 184.216 87.176 184.536 87.416L185.416 85.624C184.808 85.224 183.96 85.016 183.16 85.016C181.432 85.016 179.992 86.04 179.992 87.96V88.776H178.84V90.488H179.992V97H182.44V90.488H184.472V88.776H182.44V88.056C182.44 87.368 182.888 87.048 183.464 87.048Z" fill="#5E5E5E"/>
<path d="M189.213 88.312C186.445 88.312 184.589 90.056 184.589 92.696C184.589 95.32 186.445 97.096 189.213 97.096C191.965 97.096 193.821 95.32 193.821 92.696C193.821 90.056 191.965 88.312 189.213 88.312ZM189.213 90.36C190.477 90.36 191.357 91.32 191.357 92.728C191.357 94.136 190.477 95.096 189.213 95.096C187.933 95.096 187.069 94.136 187.069 92.728C187.069 91.32 187.933 90.36 189.213 90.36Z" fill="#5E5E5E"/>
<path d="M197.914 89.944V88.392H195.45V97H197.914V92.856C197.914 91.4 199.002 90.456 200.762 90.616V88.296C199.482 88.312 198.506 88.888 197.914 89.944Z" fill="#5E5E5E"/>
<path d="M213.498 88.296C212.042 88.312 210.954 88.952 210.394 90.28C209.978 89.032 208.938 88.296 207.482 88.296C206.186 88.312 205.178 88.824 204.57 89.88V88.392H202.106V97H204.57V92.744C204.57 91.496 205.29 90.568 206.49 90.552C207.498 90.552 208.138 91.208 208.138 92.312V97H210.586V92.744C210.586 91.496 211.306 90.568 212.49 90.552C213.514 90.552 214.154 91.208 214.154 92.312V97H216.602V91.592C216.602 89.576 215.402 88.296 213.498 88.296Z" fill="#5E5E5E"/>
<path d="M224.987 85.608L222.699 84.744L221.003 87.352H222.955L224.987 85.608ZM226.139 97L226.123 91.384C226.107 89.448 224.779 88.296 222.475 88.296C220.971 88.296 219.867 88.648 218.587 89.288L219.355 90.984C220.251 90.488 221.147 90.232 221.915 90.232C223.099 90.232 223.707 90.76 223.707 91.672V91.832H221.339C219.227 91.848 218.059 92.808 218.059 94.424C218.059 95.992 219.179 97.112 221.019 97.112C222.219 97.112 223.147 96.712 223.723 95.992V97H226.139ZM221.707 95.352C220.875 95.352 220.363 94.92 220.363 94.264C220.363 93.576 220.827 93.288 221.771 93.288H223.707V94.056C223.563 94.792 222.747 95.352 221.707 95.352Z" fill="#5E5E5E"/>
<path d="M234.006 91.32L235.67 90.12C234.902 88.968 233.59 88.312 231.942 88.312C229.302 88.312 227.526 90.088 227.526 92.728C227.526 95.336 229.302 97.096 231.91 97.096C233.67 97.096 235.014 96.392 235.734 95.192L234.038 94.04C233.606 94.712 232.918 95.048 232.038 95.048C230.838 95.048 229.99 94.104 229.99 92.712C229.99 91.336 230.838 90.408 232.038 90.408C232.886 90.392 233.542 90.744 234.006 91.32Z" fill="#5E5E5E"/>
<path d="M238.51 84.552C237.726 84.552 237.182 85.128 237.182 85.928C237.182 86.728 237.726 87.304 238.51 87.304C239.294 87.304 239.838 86.728 239.838 85.928C239.838 85.128 239.294 84.552 238.51 84.552ZM237.278 88.392V97H239.742V88.392H237.278Z" fill="#5E5E5E"/>
<path d="M246.41 84.76L244.714 87.368H246.666L248.698 85.624L246.41 84.76ZM245.994 88.312C243.226 88.312 241.37 90.056 241.37 92.696C241.37 95.32 243.226 97.096 245.994 97.096C248.746 97.096 250.602 95.32 250.602 92.696C250.602 90.056 248.746 88.312 245.994 88.312ZM245.994 90.36C247.258 90.36 248.138 91.32 248.138 92.728C248.138 94.136 247.258 95.096 245.994 95.096C244.714 95.096 243.85 94.136 243.85 92.728C243.85 91.32 244.714 90.36 245.994 90.36Z" fill="#5E5E5E"/>
<path d="M40 141.8L44.4 153H47.008L51.456 141.8H48.848L45.776 150.248L42.72 141.8H40Z" fill="#5E5E5E"/>
<path d="M58.0181 141.608L55.7301 140.744L54.0341 143.352H55.9861L58.0181 141.608ZM59.1701 153L59.1541 147.384C59.1381 145.448 57.8101 144.296 55.5061 144.296C54.0021 144.296 52.8981 144.648 51.6181 145.288L52.3861 146.984C53.2821 146.488 54.1781 146.232 54.9461 146.232C56.1301 146.232 56.7381 146.76 56.7381 147.672V147.832H54.3701C52.2581 147.848 51.0901 148.808 51.0901 150.424C51.0901 151.992 52.2101 153.112 54.0501 153.112C55.2501 153.112 56.1781 152.712 56.7541 151.992V153H59.1701ZM54.7381 151.352C53.9061 151.352 53.3941 150.92 53.3941 150.264C53.3941 149.576 53.8581 149.288 54.8021 149.288H56.7381V150.056C56.5941 150.792 55.7781 151.352 54.7381 151.352Z" fill="#5E5E5E"/>
<path d="M66.7174 146.92L67.5654 145.24C66.6054 144.632 65.3894 144.28 64.2054 144.28C62.3334 144.28 60.8134 145.192 60.8134 146.968C60.8134 149.992 65.2774 149.256 65.2774 150.632C65.2774 151.096 64.8134 151.304 64.1894 151.304C63.2454 151.304 62.0934 150.92 61.1974 150.232L60.3974 151.896C61.3734 152.68 62.7334 153.096 64.1254 153.096C66.0774 153.096 67.6294 152.168 67.6294 150.408C67.6454 147.368 63.1014 148.024 63.1014 146.728C63.1014 146.28 63.5174 146.088 64.0934 146.088C64.8134 146.088 65.7734 146.392 66.7174 146.92Z" fill="#5E5E5E"/>
<path d="M75.5338 141.608L73.2458 140.744L71.5497 143.352H73.5018L75.5338 141.608ZM76.6857 153L76.6698 147.384C76.6538 145.448 75.3258 144.296 73.0218 144.296C71.5178 144.296 70.4138 144.648 69.1338 145.288L69.9018 146.984C70.7978 146.488 71.6938 146.232 72.4618 146.232C73.6458 146.232 74.2537 146.76 74.2537 147.672V147.832H71.8857C69.7737 147.848 68.6057 148.808 68.6057 150.424C68.6057 151.992 69.7258 153.112 71.5658 153.112C72.7658 153.112 73.6937 152.712 74.2697 151.992V153H76.6857ZM72.2537 151.352C71.4217 151.352 70.9097 150.92 70.9097 150.264C70.9097 149.576 71.3737 149.288 72.3177 149.288H74.2537V150.056C74.1097 150.792 73.2937 151.352 72.2537 151.352Z" fill="#5E5E5E"/>
<path d="M81.273 145.944V144.392H78.809V153H81.273V148.856C81.273 147.4 82.361 146.456 84.121 146.616V144.296C82.841 144.312 81.865 144.888 81.273 145.944Z" fill="#5E5E5E"/>
<path d="M85.5452 141.128V153H88.0093V141.128H85.5452Z" fill="#5E5E5E"/>
<path d="M94.7849 140.76L93.0889 143.368H95.0409L97.0729 141.624L94.7849 140.76ZM94.3689 144.312C91.6009 144.312 89.7449 146.056 89.7449 148.696C89.7449 151.32 91.6009 153.096 94.3689 153.096C97.1209 153.096 98.9769 151.32 98.9769 148.696C98.9769 146.056 97.1209 144.312 94.3689 144.312ZM94.3689 146.36C95.6329 146.36 96.5129 147.32 96.5129 148.728C96.5129 150.136 95.6329 151.096 94.3689 151.096C93.0889 151.096 92.2249 150.136 92.2249 148.728C92.2249 147.32 93.0889 146.36 94.3689 146.36Z" fill="#5E5E5E"/>
<path d="M101.838 140.552C101.054 140.552 100.51 141.128 100.51 141.928C100.51 142.728 101.054 143.304 101.838 143.304C102.622 143.304 103.166 142.728 103.166 141.928C103.166 141.128 102.622 140.552 101.838 140.552ZM100.606 144.392V153H103.07V144.392H100.606Z" fill="#5E5E5E"/>
<path d="M115.341 141.128V145.656C114.717 144.776 113.773 144.296 112.557 144.296C110.157 144.296 108.557 146.04 108.557 148.664C108.557 151.32 110.173 153.096 112.621 153.096C113.805 153.096 114.733 152.616 115.341 151.736V153H117.789V141.128H115.341ZM113.197 151.112C111.901 151.112 111.037 150.136 111.021 148.728C111.037 147.336 111.917 146.344 113.197 146.344C114.461 146.344 115.341 147.32 115.341 148.728C115.341 150.136 114.461 151.112 113.197 151.112Z" fill="#5E5E5E"/>
<path d="M122.631 140.696C121.959 140.696 121.479 141.192 121.479 141.896C121.479 142.584 121.959 143.096 122.631 143.096C123.319 143.096 123.783 142.584 123.783 141.896C123.783 141.192 123.319 140.696 122.631 140.696ZM125.639 140.696C124.967 140.696 124.487 141.192 124.487 141.896C124.487 142.584 124.967 143.096 125.639 143.096C126.327 143.096 126.79 142.584 126.79 141.896C126.79 141.192 126.327 140.696 125.639 140.696ZM124.134 144.312C121.366 144.312 119.51 146.056 119.51 148.696C119.51 151.32 121.366 153.096 124.134 153.096C126.886 153.096 128.743 151.32 128.743 148.696C128.743 146.056 126.886 144.312 124.134 144.312ZM124.134 146.36C125.398 146.36 126.279 147.32 126.279 148.728C126.279 150.136 125.398 151.096 124.134 151.096C122.854 151.096 121.991 150.136 121.991 148.728C121.991 147.32 122.854 146.36 124.134 146.36Z" fill="#5E5E5E"/>
<path d="M135.812 144.296C134.468 144.312 133.444 144.824 132.836 145.896V144.392H130.371V153H132.836V148.76C132.836 147.496 133.571 146.568 134.803 146.552C135.859 146.552 136.499 147.224 136.499 148.312V153H138.964V147.592C138.964 145.576 137.732 144.296 135.812 144.296Z" fill="#5E5E5E"/>
<path d="M145.906 150.712C145.458 150.92 145.074 151.032 144.754 151.032C144.226 151.048 143.922 150.76 143.922 150.04V146.488H146.258V144.776H143.922V142.408H141.474V144.776H140.274V146.472H141.474V150.456C141.474 152.232 142.642 153.112 144.178 153.112C144.978 153.112 145.778 152.888 146.418 152.52L145.906 150.712Z" fill="#5E5E5E"/>
<path d="M154.16 141.624L151.872 140.76L150.176 143.368H152.128L154.16 141.624ZM151.536 144.312C148.912 144.312 147.104 146.072 147.104 148.728C147.104 151.336 148.848 153.096 151.6 153.096C153.152 153.096 154.416 152.536 155.28 151.576L153.984 150.264C153.392 150.856 152.624 151.176 151.808 151.176C150.704 151.176 149.872 150.536 149.584 149.448H155.76C155.968 146.312 154.56 144.312 151.536 144.312ZM149.536 147.992C149.728 146.856 150.464 146.12 151.552 146.12C152.688 146.12 153.424 146.856 153.456 147.992H149.536Z" fill="#5E5E5E"/>
<path d="M162.811 146.92L163.659 145.24C162.699 144.632 161.483 144.28 160.299 144.28C158.427 144.28 156.907 145.192 156.907 146.968C156.907 149.992 161.371 149.256 161.371 150.632C161.371 151.096 160.907 151.304 160.283 151.304C159.339 151.304 158.187 150.92 157.291 150.232L156.491 151.896C157.467 152.68 158.827 153.096 160.219 153.096C162.171 153.096 163.723 152.168 163.723 150.408C163.739 147.368 159.195 148.024 159.195 146.728C159.195 146.28 159.611 146.088 160.187 146.088C160.907 146.088 161.867 146.392 162.811 146.92Z" fill="#5E5E5E"/>
<path d="M170.188 150.712C169.739 150.92 169.356 151.032 169.036 151.032C168.508 151.048 168.204 150.76 168.204 150.04V146.488H170.54V144.776H168.204V142.408H165.756V144.776H164.555V146.472H165.756V150.456C165.756 152.232 166.924 153.112 168.46 153.112C169.26 153.112 170.059 152.888 170.699 152.52L170.188 150.712Z" fill="#5E5E5E"/>
<path d="M178.44 141.608L176.152 140.744L174.456 143.352H176.408L178.44 141.608ZM179.592 153L179.576 147.384C179.56 145.448 178.232 144.296 175.928 144.296C174.424 144.296 173.32 144.648 172.04 145.288L172.808 146.984C173.704 146.488 174.6 146.232 175.368 146.232C176.552 146.232 177.16 146.76 177.16 147.672V147.832H174.792C172.68 147.848 171.512 148.808 171.512 150.424C171.512 151.992 172.632 153.112 174.472 153.112C175.672 153.112 176.6 152.712 177.176 151.992V153H179.592ZM175.16 151.352C174.328 151.352 173.816 150.92 173.816 150.264C173.816 149.576 174.28 149.288 175.224 149.288H177.16V150.056C177.016 150.792 176.2 151.352 175.16 151.352Z" fill="#5E5E5E"/>
<path d="M193.107 144.296C191.651 144.312 190.563 144.952 190.003 146.28C189.587 145.032 188.547 144.296 187.091 144.296C185.795 144.312 184.787 144.824 184.179 145.88V144.392H181.715V153H184.179V148.744C184.179 147.496 184.899 146.568 186.099 146.552C187.107 146.552 187.747 147.208 187.747 148.312V153H190.195V148.744C190.195 147.496 190.915 146.568 192.099 146.552C193.123 146.552 193.763 147.208 193.763 148.312V153H196.211V147.592C196.211 145.576 195.011 144.296 193.107 144.296Z" fill="#5E5E5E"/>
<path d="M202.228 144.312C199.46 144.312 197.604 146.056 197.604 148.696C197.604 151.32 199.46 153.096 202.228 153.096C204.98 153.096 206.836 151.32 206.836 148.696C206.836 146.056 204.98 144.312 202.228 144.312ZM202.228 146.36C203.492 146.36 204.372 147.32 204.372 148.728C204.372 150.136 203.492 151.096 202.228 151.096C200.948 151.096 200.084 150.136 200.084 148.728C200.084 147.32 200.948 146.36 202.228 146.36Z" fill="#5E5E5E"/>
<path d="M214.081 144.392V145.56C213.489 144.76 212.593 144.296 211.425 144.312C209.233 144.312 207.729 145.96 207.729 148.392C207.729 150.888 209.265 152.552 211.489 152.552C212.625 152.552 213.505 152.104 214.081 151.304V152.28C214.081 153.448 213.185 154.2 211.777 154.2C210.801 154.2 209.889 153.896 209.105 153.336L208.193 155.064C209.185 155.736 210.481 156.2 211.937 156.2C214.689 156.2 216.529 154.648 216.529 152.2V144.392H214.081ZM212.065 150.68C210.849 150.68 210.049 149.768 210.033 148.456C210.049 147.144 210.865 146.216 212.065 146.216C213.265 146.216 214.081 147.128 214.081 148.456C214.081 149.768 213.265 150.68 212.065 150.68Z" fill="#5E5E5E"/>
<path d="M226.186 153L226.17 147.384C226.154 145.448 224.826 144.296 222.522 144.296C221.018 144.296 219.914 144.648 218.634 145.288L219.402 146.984C220.298 146.488 221.194 146.232 221.962 146.232C223.146 146.232 223.754 146.76 223.754 147.672V147.832H221.386C219.274 147.848 218.106 148.808 218.106 150.424C218.106 151.992 219.226 153.112 221.066 153.112C222.266 153.112 223.194 152.712 223.77 151.992V153H226.186ZM221.754 151.352C220.922 151.352 220.41 150.92 220.41 150.264C220.41 149.576 220.874 149.288 221.818 149.288H223.754V150.056C223.61 150.792 222.794 151.352 221.754 151.352Z" fill="#5E5E5E"/>
<path d="M233.125 150.712C232.677 150.92 232.293 151.032 231.973 151.032C231.445 151.048 231.141 150.76 231.141 150.04V146.488H233.477V144.776H231.141V142.408H228.693V144.776H227.493V146.472H228.693V150.456C228.693 152.232 229.861 153.112 231.397 153.112C232.197 153.112 232.997 152.888 233.637 152.52L233.125 150.712Z" fill="#5E5E5E"/>
<path d="M241.378 141.608L239.09 140.744L237.393 143.352H239.346L241.378 141.608ZM242.529 153L242.514 147.384C242.498 145.448 241.169 144.296 238.865 144.296C237.361 144.296 236.257 144.648 234.977 145.288L235.745 146.984C236.641 146.488 237.537 146.232 238.305 146.232C239.489 146.232 240.098 146.76 240.098 147.672V147.832H237.73C235.618 147.848 234.449 148.808 234.449 150.424C234.449 151.992 235.57 153.112 237.41 153.112C238.61 153.112 239.537 152.712 240.113 151.992V153H242.529ZM238.098 151.352C237.266 151.352 236.753 150.92 236.753 150.264C236.753 149.576 237.217 149.288 238.161 149.288H240.098V150.056C239.954 150.792 239.138 151.352 238.098 151.352Z" fill="#5E5E5E"/>
<path d="M250.077 146.92L250.925 145.24C249.965 144.632 248.749 144.28 247.565 144.28C245.693 144.28 244.173 145.192 244.173 146.968C244.173 149.992 248.637 149.256 248.637 150.632C248.637 151.096 248.173 151.304 247.549 151.304C246.605 151.304 245.453 150.92 244.557 150.232L243.757 151.896C244.733 152.68 246.093 153.096 247.485 153.096C249.437 153.096 250.989 152.168 250.989 150.408C251.005 147.368 246.461 148.024 246.461 146.728C246.461 146.28 246.877 146.088 247.453 146.088C248.173 146.088 249.133 146.392 250.077 146.92Z" fill="#5E5E5E"/>
<path d="M16.2324 197.8V209H18.7604V204.76H23.8164V202.648H18.7604V199.896H24.2644L24.2804 197.8H16.2324Z" fill="#5E5E5E"/>
<path d="M28.212 199.08C28.9 199.08 29.364 198.568 29.364 197.88C29.364 197.176 28.9 196.68 28.212 196.68C27.54 196.68 27.06 197.176 27.06 197.88C27.06 198.568 27.54 199.08 28.212 199.08ZM31.22 199.08C31.908 199.08 32.372 198.568 32.372 197.88C32.372 197.176 31.908 196.68 31.22 196.68C30.548 196.68 30.068 197.176 30.068 197.88C30.068 198.568 30.548 199.08 31.22 199.08ZM31.428 200.392V204.648C31.428 205.896 30.708 206.824 29.524 206.84C28.532 206.84 27.908 206.184 27.908 205.096V200.392H25.444V205.8C25.444 207.832 26.644 209.096 28.548 209.096C29.844 209.096 30.836 208.568 31.428 207.48V209H33.876V200.392H31.428Z" fill="#5E5E5E"/>
<path d="M41.8785 200.392V201.56C41.2865 200.76 40.3905 200.296 39.2225 200.312C37.0305 200.312 35.5265 201.96 35.5265 204.392C35.5265 206.888 37.0625 208.552 39.2865 208.552C40.4225 208.552 41.3025 208.104 41.8785 207.304V208.28C41.8785 209.448 40.9825 210.2 39.5745 210.2C38.5985 210.2 37.6865 209.896 36.9025 209.336L35.9905 211.064C36.9825 211.736 38.2785 212.2 39.7345 212.2C42.4865 212.2 44.3265 210.648 44.3265 208.2V200.392H41.8785ZM39.8625 206.68C38.6465 206.68 37.8465 205.768 37.8305 204.456C37.8465 203.144 38.6625 202.216 39.8625 202.216C41.0625 202.216 41.8785 203.128 41.8785 204.456C41.8785 205.768 41.0625 206.68 39.8625 206.68Z" fill="#5E5E5E"/>
<path d="M52.191 200.392V201.56C51.599 200.76 50.703 200.296 49.535 200.312C47.343 200.312 45.839 201.96 45.839 204.392C45.839 206.888 47.375 208.552 49.599 208.552C50.735 208.552 51.615 208.104 52.191 207.304V208.28C52.191 209.448 51.2951 210.2 49.8871 210.2C48.9111 210.2 47.999 209.896 47.215 209.336L46.303 211.064C47.295 211.736 48.591 212.2 50.047 212.2C52.799 212.2 54.639 210.648 54.639 208.2V200.392H52.191ZM50.175 206.68C48.959 206.68 48.159 205.768 48.143 204.456C48.159 203.144 48.975 202.216 50.175 202.216C51.375 202.216 52.191 203.128 52.191 204.456C52.191 205.768 51.375 206.68 50.175 206.68Z" fill="#5E5E5E"/>
<path d="M60.5835 200.312C57.9595 200.312 56.1516 202.072 56.1516 204.728C56.1516 207.336 57.8955 209.096 60.6475 209.096C62.1995 209.096 63.4635 208.536 64.3275 207.576L63.0315 206.264C62.4395 206.856 61.6715 207.176 60.8555 207.176C59.7515 207.176 58.9195 206.536 58.6315 205.448H64.8075C65.0155 202.312 63.6075 200.312 60.5835 200.312ZM58.5835 203.992C58.7755 202.856 59.5115 202.12 60.5995 202.12C61.7355 202.12 62.4715 202.856 62.5035 203.992H58.5835Z" fill="#5E5E5E"/>
<path d="M71.2504 206.712C70.8024 206.92 70.4184 207.032 70.0984 207.032C69.5704 207.048 69.2664 206.76 69.2664 206.04V202.488H71.6024V200.776H69.2664V198.408H66.8184V200.776H65.6184V202.472H66.8184V206.456C66.8184 208.232 67.9864 209.112 69.5224 209.112C70.3224 209.112 71.1224 208.888 71.7624 208.52L71.2504 206.712Z" fill="#5E5E5E"/>
<path d="M73.3269 197.128V209H75.7909V197.128H73.3269Z" fill="#5E5E5E"/>
<path d="M81.9585 200.312C79.3345 200.312 77.5266 202.072 77.5266 204.728C77.5266 207.336 79.2705 209.096 82.0225 209.096C83.5745 209.096 84.8385 208.536 85.7025 207.576L84.4065 206.264C83.8145 206.856 83.0465 207.176 82.2305 207.176C81.1265 207.176 80.2945 206.536 80.0065 205.448H86.1825C86.3905 202.312 84.9825 200.312 81.9585 200.312ZM79.9585 203.992C80.1505 202.856 80.8865 202.12 81.9745 202.12C83.1105 202.12 83.8465 202.856 83.8785 203.992H79.9585Z" fill="#5E5E5E"/>
<path d="M93.2494 200.296C91.9054 200.312 90.8814 200.824 90.2734 201.896V200.392H87.8094V209H90.2734V204.76C90.2734 203.496 91.0094 202.568 92.2414 202.552C93.2974 202.552 93.9374 203.224 93.9374 204.312V209H96.4014V203.592C96.4014 201.576 95.1694 200.296 93.2494 200.296Z" fill="#5E5E5E"/>
<path d="M99.2322 206.616C98.5282 206.616 98.0002 207.128 98.0002 207.864C98.0002 208.264 98.1602 208.616 98.4962 208.856L97.8242 210.472H99.0242L100.096 208.856C100.304 208.568 100.432 208.248 100.432 207.864C100.432 207.064 99.8722 206.616 99.2322 206.616Z" fill="#5E5E5E"/>
<path d="M108.49 196.696C107.818 196.696 107.338 197.192 107.338 197.896C107.338 198.584 107.818 199.096 108.49 199.096C109.178 199.096 109.642 198.584 109.642 197.896C109.642 197.192 109.178 196.696 108.49 196.696ZM111.498 196.696C110.826 196.696 110.346 197.192 110.346 197.896C110.346 198.584 110.826 199.096 111.498 199.096C112.186 199.096 112.65 198.584 112.65 197.896C112.65 197.192 112.186 196.696 111.498 196.696ZM109.994 200.312C107.226 200.312 105.37 202.056 105.37 204.696C105.37 207.32 107.226 209.096 109.994 209.096C112.746 209.096 114.602 207.32 114.602 204.696C114.602 202.056 112.746 200.312 109.994 200.312ZM109.994 202.36C111.258 202.36 112.138 203.32 112.138 204.728C112.138 206.136 111.258 207.096 109.994 207.096C108.714 207.096 107.85 206.136 107.85 204.728C107.85 203.32 108.714 202.36 109.994 202.36Z" fill="#5E5E5E"/>
<path d="M121.655 202.92L122.503 201.24C121.543 200.632 120.327 200.28 119.143 200.28C117.271 200.28 115.751 201.192 115.751 202.968C115.751 205.992 120.215 205.256 120.215 206.632C120.215 207.096 119.751 207.304 119.127 207.304C118.183 207.304 117.031 206.92 116.135 206.232L115.335 207.896C116.311 208.68 117.671 209.096 119.063 209.096C121.015 209.096 122.567 208.168 122.567 206.408C122.583 203.368 118.039 204.024 118.039 202.728C118.039 202.28 118.455 202.088 119.031 202.088C119.751 202.088 120.711 202.392 121.655 202.92Z" fill="#5E5E5E"/>
<path d="M129.64 202.92L130.488 201.24C129.528 200.632 128.312 200.28 127.128 200.28C125.256 200.28 123.736 201.192 123.736 202.968C123.736 205.992 128.2 205.256 128.2 206.632C128.2 207.096 127.736 207.304 127.112 207.304C126.168 207.304 125.016 206.92 124.12 206.232L123.32 207.896C124.296 208.68 125.656 209.096 127.048 209.096C129 209.096 130.552 208.168 130.552 206.408C130.568 203.368 126.024 204.024 126.024 202.728C126.024 202.28 126.44 202.088 127.016 202.088C127.736 202.088 128.696 202.392 129.64 202.92Z" fill="#5E5E5E"/>
<path d="M131.784 200.408V202.328L136.056 202.344L131.624 207.448V209L139.272 209.016V207.064H134.696L139.128 201.96V200.408H131.784Z" fill="#5E5E5E"/>
<path d="M144.599 200.312C141.975 200.312 140.167 202.072 140.167 204.728C140.167 207.336 141.911 209.096 144.663 209.096C146.215 209.096 147.479 208.536 148.343 207.576L147.047 206.264C146.455 206.856 145.687 207.176 144.871 207.176C143.767 207.176 142.935 206.536 142.647 205.448H148.823C149.031 202.312 147.623 200.312 144.599 200.312ZM142.599 203.992C142.791 202.856 143.527 202.12 144.615 202.12C145.751 202.12 146.487 202.856 146.519 203.992H142.599Z" fill="#5E5E5E"/>
<path d="M155.97 200.296C154.626 200.312 153.602 200.84 152.994 201.912V197.128H150.53V209H152.994V204.76C152.994 203.496 153.746 202.568 154.978 202.552C156.034 202.552 156.674 203.224 156.674 204.312V209H159.138V203.592C159.138 201.576 157.906 200.296 155.97 200.296Z" fill="#5E5E5E"/>
<path d="M168.655 209L168.639 203.384C168.623 201.448 167.295 200.296 164.991 200.296C163.487 200.296 162.383 200.648 161.103 201.288L161.871 202.984C162.767 202.488 163.663 202.232 164.431 202.232C165.615 202.232 166.223 202.76 166.223 203.672V203.832H163.855C161.743 203.848 160.575 204.808 160.575 206.424C160.575 207.992 161.695 209.112 163.535 209.112C164.735 209.112 165.663 208.712 166.239 207.992V209H168.655ZM164.223 207.352C163.391 207.352 162.879 206.92 162.879 206.264C162.879 205.576 163.343 205.288 164.287 205.288H166.223V206.056C166.079 206.792 165.263 207.352 164.223 207.352Z" fill="#5E5E5E"/>
<path d="M176.202 202.92L177.05 201.24C176.09 200.632 174.874 200.28 173.69 200.28C171.818 200.28 170.298 201.192 170.298 202.968C170.298 205.992 174.762 205.256 174.762 206.632C174.762 207.096 174.298 207.304 173.674 207.304C172.73 207.304 171.578 206.92 170.682 206.232L169.882 207.896C170.858 208.68 172.218 209.096 173.61 209.096C175.562 209.096 177.114 208.168 177.114 206.408C177.13 203.368 172.586 204.024 172.586 202.728C172.586 202.28 173.002 202.088 173.578 202.088C174.298 202.088 175.258 202.392 176.202 202.92Z" fill="#5E5E5E"/>
<path d="M182.651 200.312C179.883 200.312 178.027 202.056 178.027 204.696C178.027 207.32 179.883 209.096 182.651 209.096C185.403 209.096 187.259 207.32 187.259 204.696C187.259 202.056 185.403 200.312 182.651 200.312ZM182.651 202.36C183.915 202.36 184.795 203.32 184.795 204.728C184.795 206.136 183.915 207.096 182.651 207.096C181.371 207.096 180.507 206.136 180.507 204.728C180.507 203.32 181.371 202.36 182.651 202.36Z" fill="#5E5E5E"/>
<path d="M194.328 200.296C192.984 200.312 191.96 200.824 191.352 201.896V200.392H188.888V209H191.352V204.76C191.352 203.496 192.088 202.568 193.32 202.552C194.376 202.552 195.016 203.224 195.016 204.312V209H197.48V203.592C197.48 201.576 196.248 200.296 194.328 200.296Z" fill="#5E5E5E"/>
<path d="M199.686 197.128V209H202.15V197.128H199.686Z" fill="#5E5E5E"/>
<path d="M206.27 196.744L204.574 199.352H206.526L208.558 197.608L206.27 196.744ZM204.622 200.392V209H207.086V200.392H204.622Z" fill="#5E5E5E"/>
<path d="M214.266 206.712C213.818 206.92 213.434 207.032 213.114 207.032C212.586 207.048 212.282 206.76 212.282 206.04V202.488H214.618V200.776H212.282V198.408H209.834V200.776H208.634V202.472H209.834V206.456C209.834 208.232 211.002 209.112 212.538 209.112C213.338 209.112 214.138 208.888 214.778 208.52L214.266 206.712Z" fill="#5E5E5E"/>
<path d="M221.783 200.296C220.439 200.312 219.415 200.84 218.807 201.912V197.128H216.343V209H218.807V204.76C218.807 203.496 219.559 202.568 220.791 202.552C221.847 202.552 222.487 203.224 222.487 204.312V209H224.951V203.592C224.951 201.576 223.719 200.296 221.783 200.296Z" fill="#5E5E5E"/>
<path d="M234.467 209L234.451 203.384C234.435 201.448 233.107 200.296 230.803 200.296C229.299 200.296 228.195 200.648 226.915 201.288L227.683 202.984C228.579 202.488 229.475 202.232 230.243 202.232C231.427 202.232 232.035 202.76 232.035 203.672V203.832H229.667C227.555 203.848 226.387 204.808 226.387 206.424C226.387 207.992 227.507 209.112 229.347 209.112C230.547 209.112 231.475 208.712 232.051 207.992V209H234.467ZM230.035 207.352C229.203 207.352 228.691 206.92 228.691 206.264C228.691 205.576 229.155 205.288 230.099 205.288H232.035V206.056C231.891 206.792 231.075 207.352 230.035 207.352Z" fill="#5E5E5E"/>
<path d="M241.407 206.712C240.959 206.92 240.575 207.032 240.255 207.032C239.727 207.048 239.423 206.76 239.423 206.04V202.488H241.759V200.776H239.423V198.408H236.975V200.776H235.775V202.472H236.975V206.456C236.975 208.232 238.143 209.112 239.679 209.112C240.479 209.112 241.279 208.888 241.919 208.52L241.407 206.712Z" fill="#5E5E5E"/>
<path d="M247.645 196.76L245.949 199.368H247.901L249.933 197.624L247.645 196.76ZM247.229 200.312C244.461 200.312 242.605 202.056 242.605 204.696C242.605 207.32 244.461 209.096 247.229 209.096C249.981 209.096 251.837 207.32 251.837 204.696C251.837 202.056 249.981 200.312 247.229 200.312ZM247.229 202.36C248.493 202.36 249.373 203.32 249.373 204.728C249.373 206.136 248.493 207.096 247.229 207.096C245.949 207.096 245.085 206.136 245.085 204.728C245.085 203.32 245.949 202.36 247.229 202.36Z" fill="#5E5E5E"/>
<path d="M169.232 253.8V265H171.52V257.448L174.496 263.864H176.144L179.12 257.448V265H181.392V253.8H178.576L175.328 260.648L172.064 253.8H169.232Z" fill="#5E5E5E"/>
<path d="M185.057 252.552C184.273 252.552 183.729 253.128 183.729 253.928C183.729 254.728 184.273 255.304 185.057 255.304C185.841 255.304 186.385 254.728 186.385 253.928C186.385 253.128 185.841 252.552 185.057 252.552ZM183.825 256.392V265H186.289V256.392H183.825Z" fill="#5E5E5E"/>
<path d="M194.093 256.296C192.749 256.312 191.725 256.824 191.117 257.896V256.392H188.653V265H191.117V260.76C191.117 259.496 191.853 258.568 193.085 258.552C194.141 258.552 194.781 259.224 194.781 260.312V265H197.245V259.592C197.245 257.576 196.013 256.296 194.093 256.296Z" fill="#5E5E5E"/>
<path d="M201.98 252.728L200.62 255.4H202.444L203.9 253.48L201.98 252.728ZM204.924 252.728L203.58 255.4H205.404L206.86 253.48L204.924 252.728ZM203.26 256.312C200.492 256.312 198.636 258.056 198.636 260.696C198.636 263.32 200.492 265.096 203.26 265.096C206.012 265.096 207.868 263.32 207.868 260.696C207.868 258.056 206.012 256.312 203.26 256.312ZM203.26 258.36C204.524 258.36 205.404 259.32 205.404 260.728C205.404 262.136 204.524 263.096 203.26 263.096C201.98 263.096 201.116 262.136 201.116 260.728C201.116 259.32 201.98 258.36 203.26 258.36Z" fill="#5E5E5E"/>
<path d="M214.921 258.92L215.769 257.24C214.809 256.632 213.593 256.28 212.409 256.28C210.537 256.28 209.017 257.192 209.017 258.968C209.017 261.992 213.481 261.256 213.481 262.632C213.481 263.096 213.017 263.304 212.393 263.304C211.449 263.304 210.297 262.92 209.401 262.232L208.601 263.896C209.577 264.68 210.937 265.096 212.329 265.096C214.281 265.096 215.833 264.168 215.833 262.408C215.849 259.368 211.305 260.024 211.305 258.728C211.305 258.28 211.721 258.088 212.297 258.088C213.017 258.088 213.977 258.392 214.921 258.92Z" fill="#5E5E5E"/>
<path d="M219.129 252.744L217.433 255.352H219.385L221.417 253.608L219.129 252.744ZM217.481 256.392V265H219.945V256.392H217.481Z" fill="#5E5E5E"/>
<path d="M227.125 262.712C226.677 262.92 226.293 263.032 225.973 263.032C225.445 263.048 225.141 262.76 225.141 262.04V258.488H227.477V256.776H225.141V254.408H222.693V256.776H221.493V258.472H222.693V262.456C222.693 264.232 223.861 265.112 225.397 265.112C226.197 265.112 226.997 264.888 227.637 264.52L227.125 262.712Z" fill="#5E5E5E"/>
<path d="M232.755 256.312C230.131 256.312 228.323 258.072 228.323 260.728C228.323 263.336 230.067 265.096 232.819 265.096C234.371 265.096 235.635 264.536 236.499 263.576L235.203 262.264C234.611 262.856 233.843 263.176 233.027 263.176C231.923 263.176 231.091 262.536 230.803 261.448H236.979C237.187 258.312 235.779 256.312 232.755 256.312ZM230.755 259.992C230.947 258.856 231.683 258.12 232.771 258.12C233.907 258.12 234.643 258.856 234.675 259.992H230.755Z" fill="#5E5E5E"/>
<path d="M243.422 262.712C242.974 262.92 242.59 263.032 242.27 263.032C241.742 263.048 241.438 262.76 241.438 262.04V258.488H243.774V256.776H241.438V254.408H238.99V256.776H237.79V258.472H238.99V262.456C238.99 264.232 240.158 265.112 241.694 265.112C242.494 265.112 243.294 264.888 243.934 264.52L243.422 262.712Z" fill="#5E5E5E"/>
<path d="M250.235 262.712C249.787 262.92 249.403 263.032 249.083 263.032C248.555 263.048 248.251 262.76 248.251 262.04V258.488H250.587V256.776H248.251V254.408H245.803V256.776H244.603V258.472H245.803V262.456C245.803 264.232 246.971 265.112 248.507 265.112C249.307 265.112 250.107 264.888 250.747 264.52L250.235 262.712Z" fill="#5E5E5E"/>
<path d="M172.832 306.088C172.16 306.088 171.68 306.584 171.68 307.288C171.68 307.976 172.16 308.488 172.832 308.488C173.52 308.488 173.984 307.976 173.984 307.288C173.984 306.584 173.52 306.088 172.832 306.088ZM175.84 306.088C175.168 306.088 174.688 306.584 174.688 307.288C174.688 307.976 175.168 308.488 175.84 308.488C176.528 308.488 176.992 307.976 176.992 307.288C176.992 306.584 176.528 306.088 175.84 306.088ZM174.448 309.72C171.024 309.72 168.432 312.136 168.432 315.4C168.432 318.648 171.024 321.112 174.448 321.112C177.872 321.112 180.464 318.632 180.464 315.4C180.464 312.152 177.872 309.72 174.448 309.72ZM174.48 311.928C176.352 311.928 177.872 313.432 177.872 315.4C177.872 317.368 176.352 318.904 174.48 318.904C172.608 318.904 171.024 317.368 171.024 315.4C171.024 313.432 172.592 311.928 174.48 311.928Z" fill="#5E5E5E"/>
<path d="M187.498 314.92L188.346 313.24C187.386 312.632 186.17 312.28 184.986 312.28C183.114 312.28 181.594 313.192 181.594 314.968C181.594 317.992 186.058 317.256 186.058 318.632C186.058 319.096 185.594 319.304 184.97 319.304C184.026 319.304 182.874 318.92 181.978 318.232L181.178 319.896C182.154 320.68 183.514 321.096 184.906 321.096C186.858 321.096 188.41 320.168 188.41 318.408C188.426 315.368 183.882 316.024 183.882 314.728C183.882 314.28 184.298 314.088 184.874 314.088C185.594 314.088 186.554 314.392 187.498 314.92Z" fill="#5E5E5E"/>
<path d="M195.483 314.92L196.331 313.24C195.371 312.632 194.155 312.28 192.971 312.28C191.099 312.28 189.579 313.192 189.579 314.968C189.579 317.992 194.043 317.256 194.043 318.632C194.043 319.096 193.579 319.304 192.955 319.304C192.011 319.304 190.859 318.92 189.963 318.232L189.163 319.896C190.139 320.68 191.499 321.096 192.891 321.096C194.843 321.096 196.395 320.168 196.395 318.408C196.411 315.368 191.867 316.024 191.867 314.728C191.867 314.28 192.283 314.088 192.859 314.088C193.579 314.088 194.539 314.392 195.483 314.92Z" fill="#5E5E5E"/>
<path d="M197.627 312.408V314.328L201.899 314.344L197.467 319.448V321L205.115 321.016V319.064H200.539L204.971 313.96V312.408H197.627Z" fill="#5E5E5E"/>
<path d="M210.442 312.312C207.818 312.312 206.01 314.072 206.01 316.728C206.01 319.336 207.754 321.096 210.506 321.096C212.058 321.096 213.322 320.536 214.186 319.576L212.89 318.264C212.298 318.856 211.53 319.176 210.714 319.176C209.61 319.176 208.778 318.536 208.49 317.448H214.666C214.874 314.312 213.466 312.312 210.442 312.312ZM208.442 315.992C208.634 314.856 209.37 314.12 210.458 314.12C211.594 314.12 212.33 314.856 212.362 315.992H208.442Z" fill="#5E5E5E"/>
<path d="M221.909 312.392V313.56C221.317 312.76 220.421 312.296 219.253 312.312C217.061 312.312 215.557 313.96 215.557 316.392C215.557 318.888 217.093 320.552 219.317 320.552C220.453 320.552 221.333 320.104 221.909 319.304V320.28C221.909 321.448 221.013 322.2 219.605 322.2C218.629 322.2 217.717 321.896 216.933 321.336L216.021 323.064C217.013 323.736 218.309 324.2 219.765 324.2C222.517 324.2 224.357 322.648 224.357 320.2V312.392H221.909ZM219.893 318.68C218.677 318.68 217.877 317.768 217.861 316.456C217.877 315.144 218.693 314.216 219.893 314.216C221.093 314.216 221.909 315.128 221.909 316.456C221.909 317.768 221.093 318.68 219.893 318.68Z" fill="#5E5E5E"/>
<path d="M226.19 312.408V314.328L230.462 314.344L226.03 319.448V321L233.678 321.016V319.064H229.102L233.534 313.96V312.408H226.19Z" fill="#5E5E5E"/>
<path d="M241.629 309.624L239.341 308.76L237.645 311.368H239.597L241.629 309.624ZM239.005 312.312C236.381 312.312 234.573 314.072 234.573 316.728C234.573 319.336 236.317 321.096 239.069 321.096C240.621 321.096 241.885 320.536 242.749 319.576L241.453 318.264C240.861 318.856 240.093 319.176 239.277 319.176C238.173 319.176 237.341 318.536 237.053 317.448H243.229C243.437 314.312 242.029 312.312 239.005 312.312ZM237.005 315.992C237.197 314.856 237.933 314.12 239.021 314.12C240.157 314.12 240.893 314.856 240.925 315.992H237.005Z" fill="#5E5E5E"/>
<path d="M250.28 314.92L251.128 313.24C250.168 312.632 248.952 312.28 247.768 312.28C245.896 312.28 244.376 313.192 244.376 314.968C244.376 317.992 248.84 317.256 248.84 318.632C248.84 319.096 248.376 319.304 247.752 319.304C246.808 319.304 245.656 318.92 244.76 318.232L243.96 319.896C244.936 320.68 246.296 321.096 247.688 321.096C249.64 321.096 251.192 320.168 251.192 318.408C251.208 315.368 246.664 316.024 246.664 314.728C246.664 314.28 247.08 314.088 247.656 314.088C248.376 314.088 249.336 314.392 250.28 314.92Z" fill="#5E5E5E"/>
<path d="M395.851 320.075L391.463 315.687L390 317.149L395.851 323L408.388 310.463L406.925 309L395.851 320.075Z" fill="#28BD52"/>
<path d="M356 310.41L354.59 309L349 314.59L343.41 309L342 310.41L347.59 316L342 321.59L343.41 323L349 317.41L354.59 323L356 321.59L350.41 316L356 310.41Z" fill="#BD2849"/>
<path d="M369.809 314.44L369.201 314.36L372.449 311.32V309.8H364.801V311.848H369.377L366.513 314.6V315.992H368.305C369.729 315.992 370.529 316.504 370.529 317.528C370.529 318.504 369.729 319.112 368.321 319.112C367.217 319.112 366.145 318.648 365.249 317.784L364.225 319.8C365.297 320.584 366.929 321.112 368.513 321.112C371.265 321.112 373.009 319.624 373.009 317.496C373.009 315.752 371.697 314.664 369.809 314.44Z" fill="#5E5E5E"/>
<path d="M418.568 309.784V311.928H420.808V321H423.336V309.784H418.568Z" fill="#5E5E5E"/>
<path d="M395.851 320.075L391.463 315.687L390 317.149L395.851 323L408.388 310.463L406.925 309L395.851 320.075Z" fill="#28BD52"/>
<path d="M356 310.41L354.59 309L349 314.59L343.41 309L342 310.41L347.59 316L342 321.59L343.41 323L349 317.41L354.59 323L356 321.59L350.41 316L356 310.41Z" fill="#BD2849"/>
<path d="M369.809 314.44L369.201 314.36L372.449 311.32V309.8H364.801V311.848H369.377L366.513 314.6V315.992H368.305C369.729 315.992 370.529 316.504 370.529 317.528C370.529 318.504 369.729 319.112 368.321 319.112C367.217 319.112 366.145 318.648 365.249 317.784L364.225 319.8C365.297 320.584 366.929 321.112 368.513 321.112C371.265 321.112 373.009 319.624 373.009 317.496C373.009 315.752 371.697 314.664 369.809 314.44Z" fill="#5E5E5E"/>
<path d="M418.568 309.784V311.928H420.808V321H423.336V309.784H418.568Z" fill="#5E5E5E"/>
<path d="M565.851 320.075L561.463 315.687L560 317.149L565.851 323L578.388 310.463L576.925 309L565.851 320.075Z" fill="#28BD52"/>
<path d="M526 310.41L524.59 309L519 314.59L513.41 309L512 310.41L517.59 316L512 321.59L513.41 323L519 317.41L524.59 323L526 321.59L520.41 316L526 310.41Z" fill="#BD2849"/>
<path d="M538.912 314.984L534.768 319.256V321H543.184V318.872H538.032L540.64 316.296C541.872 315.016 542.784 313.768 542.784 312.568C542.784 310.808 541.2 309.672 538.96 309.672C537.376 309.672 535.856 310.296 534.48 311.336L535.472 313.224C536.48 312.36 537.632 311.816 538.592 311.816C539.568 311.816 540.128 312.232 540.128 312.952C540.128 313.496 539.632 314.264 538.912 314.984Z" fill="#5E5E5E"/>
<path d="M591.912 314.984L587.768 319.256V321H596.184V318.872H591.032L593.64 316.296C594.872 315.016 595.784 313.768 595.784 312.568C595.784 310.808 594.2 309.672 591.96 309.672C590.376 309.672 588.856 310.296 587.48 311.336L588.472 313.224C589.48 312.36 590.632 311.816 591.592 311.816C592.568 311.816 593.128 312.232 593.128 312.952C593.128 313.496 592.632 314.264 591.912 314.984Z" fill="#5E5E5E"/>
<path d="M735.851 320.075L731.463 315.687L730 317.149L735.851 323L748.388 310.463L746.925 309L735.851 320.075Z" fill="#28BD52"/>
<path d="M696 310.41L694.59 309L689 314.59L683.41 309L682 310.41L687.59 316L682 321.59L683.41 323L689 317.41L694.59 323L696 321.59L690.41 316L696 310.41Z" fill="#BD2849"/>
<path d="M708.912 314.984L704.768 319.256V321H713.184V318.872H708.032L710.64 316.296C711.872 315.016 712.784 313.768 712.784 312.568C712.784 310.808 711.2 309.672 708.96 309.672C707.376 309.672 705.856 310.296 704.48 311.336L705.472 313.224C706.48 312.36 707.632 311.816 708.592 311.816C709.568 311.816 710.128 312.232 710.128 312.952C710.128 313.496 709.632 314.264 708.912 314.984Z" fill="#5E5E5E"/>
<path d="M761.912 314.984L757.768 319.256V321H766.184V318.872H761.032L763.64 316.296C764.872 315.016 765.784 313.768 765.784 312.568C765.784 310.808 764.2 309.672 761.96 309.672C760.376 309.672 758.856 310.296 757.48 311.336L758.472 313.224C759.48 312.36 760.632 311.816 761.592 311.816C762.568 311.816 763.128 312.232 763.128 312.952C763.128 313.496 762.632 314.264 761.912 314.984Z" fill="#5E5E5E"/>
<path d="M905.851 320.075L901.463 315.687L900 317.149L905.851 323L918.388 310.463L916.925 309L905.851 320.075Z" fill="#28BD52"/>
<path d="M866 310.41L864.59 309L859 314.59L853.41 309L852 310.41L857.59 316L852 321.59L853.41 323L859 317.41L864.59 323L866 321.59L860.41 316L866 310.41Z" fill="#BD2849"/>
<path d="M878.943 309.704C876.143 309.704 874.607 311.736 874.607 315.384C874.607 319.048 876.143 321.064 878.943 321.064C881.727 321.064 883.263 319.048 883.263 315.384C883.263 311.736 881.727 309.704 878.943 309.704ZM878.943 311.56C880.223 311.56 880.815 312.712 880.815 315.384C880.815 318.04 880.223 319.208 878.943 319.208C877.647 319.208 877.055 318.04 877.055 315.384C877.055 312.712 877.647 311.56 878.943 311.56Z" fill="#5E5E5E"/>
<path d="M931.048 309.784L927.48 316.696V318.456H932.712V321H935.032V318.456H936.568V316.424H935.048L935.032 313.944H932.712V316.424H930.104L933.448 309.784H931.048Z" fill="#5E5E5E"/>
<path d="M385 64L300 56L470 56L385 64Z" fill="#A656AA"/>
<path d="M555 64L470 56L640 56L555 64Z" fill="#56AA7C"/>
<path d="M725 64L640 56L810 56L725 64Z" fill="#AAA656"/>
<path d="M895 64L810 56L980 56L895 64Z" fill="#56AAA6"/>
</svg>
